<svg xmlns="http://www.w3.org/2000/svg" width="18" height="18" viewBox="0 0 23 23" fill="black"><defs><filter id="a"><feFlood flood-color="#FFF" flood-opacity="1" result="floodOut"></feFlood><feComposite operator="atop" in="floodOut" in2="SourceGraphic" result="compOut"></feComposite><feBlend mode="normal" in="compOut" in2="SourceGraphic"></feBlend></filter></defs><path fill-rule="evenodd" d="M21.234 11.094c-.397-2.322-1.493-4.432-3.163-6.103-1.762-1.756-3.992-2.872-6.452-3.216l.249-1.776c2.847.398 5.427 1.685 7.466 3.724 1.934 1.938 3.202 4.379 3.667 7.069l-1.767.302zm-5.102-4.255c1.163 1.168 1.929 2.637 2.207 4.26l-1.766.301c-.216-1.254-.805-2.393-1.704-3.293-.953-.952-2.159-1.55-3.485-1.737l.249-1.776c1.714.239 3.269 1.015 4.499 2.245zm-8.625 5.705c1.226 1.503 2.609 2.838 4.26 3.877.354.22.747.383 1.115.584.187.105.316.072.469-.086.56-.575 1.13-1.14 1.7-1.704.746-.742 1.684-.742 2.436 0 .914.909 1.828 1.819 2.738 2.733.761.766.756 1.704-.01 2.479-.517.522-1.067 1.02-1.556 1.565-.713.8-1.603 1.058-2.627 1-1.489-.081-2.858-.574-4.179-1.215-2.934-1.427-5.442-3.403-7.543-5.902-1.556-1.847-2.838-3.862-3.681-6.131C.218 8.648-.074 7.523.017 6.331c.057-.732.33-1.359.871-1.871.584-.555 1.134-1.134 1.708-1.699.747-.737 1.685-.737 2.437-.005.464.455.919.919 1.378 1.379.445.449.89.89 1.336 1.34.785.79.785 1.708.004 2.493-.56.565-1.115 1.13-1.684 1.68-.149.149-.163.268-.087.45.379.9.919 1.699 1.527 2.446z"></path></svg>