<svg width="24" height="24" viewBox="0 0 24 24" fill="none" xmlns="http://www.w3.org/2000/svg">
<path fill-rule="evenodd" clip-rule="evenodd" d="M19.8 24C22.1196 24 24 22.1196 24 19.8V4.2C24 1.8804 22.1196 0 19.8 0H4.2C1.8804 0 0 1.8804 0 4.2V19.8C0 22.1196 1.8804 24 4.2 24H19.8ZM16.2 14.3999V23.9999H12.6V14.3999H9V10.7999H12.6V8.39689C12.6 5.29609 14.3664 3.60889 17.1324 3.60889C18.456 3.60889 19.8 3.70729 19.8 3.75109V7.19989H17.952C16.4478 7.19989 16.2 7.70629 16.2 8.75509V10.7999H19.743L19.2762 14.3999H16.2Z" fill="white"/>
</svg>
