<svg width="118" height="44" viewBox="0 0 118 44" fill="none" xmlns="http://www.w3.org/2000/svg">
<path fill-rule="evenodd" clip-rule="evenodd" d="M32.9765 0V27.2762C32.9765 29.4857 32.3277 31.4667 30.801 33.1048C28.8545 35.2 25.9156 36.1905 23.282 37.1048C19.0455 38.5905 17.9004 40.5714 16.4883 44C15.1906 40.6857 13.9692 38.5905 9.69448 37.1048C9.08381 36.9143 8.47313 36.6857 7.86246 36.4571C3.43505 34.819 0 32.4571 0 27.2762V0H32.9765Z" fill="#2B2A29"/>
<path fill-rule="evenodd" clip-rule="evenodd" d="M32.0225 0.952362H31.5645L24.6562 7.61903C25.1524 7.69522 25.6486 7.8095 26.1447 7.8857L32.0225 2.2095V0.952362ZM18.5495 14.019C18.4731 13.8666 18.3968 13.7143 18.3205 13.5619C18.0914 12.9524 18.0914 12.1905 18.2441 11.5428C18.435 10.8952 18.7785 10.3238 19.2746 10.0571C19.3891 9.98093 19.4655 9.94284 19.5418 9.90474L19.8853 9.79046L19.6945 10.0952C19.4273 10.4762 19.1983 11.0857 19.0075 11.7714C18.8548 12.419 18.7403 13.1809 18.7403 13.9428V14.3619L18.5495 14.019ZM24.5417 11.3143C25.1142 11.619 25.3814 11.1238 25.5341 11.1238C25.7249 11.0476 25.4959 10.7428 25.1142 10.5143C24.8089 10.3238 24.3509 10.2476 24.2364 10.3619C24.1219 10.4381 23.9692 11.0095 24.5417 11.3143ZM16.9464 14.019C16.8701 13.8666 16.7938 13.7143 16.7174 13.5619C16.4884 12.9524 16.4884 12.1905 16.6411 11.5428C16.8319 10.8952 17.1754 10.3238 17.6716 10.0571C17.7861 9.98093 17.8624 9.94284 17.9388 9.90474L18.2823 9.79046L18.0914 10.0952C17.8243 10.4762 17.5953 11.0857 17.4044 11.7714C17.2518 12.419 17.1373 13.1809 17.1373 13.9428V14.3619L16.9464 14.019ZM15.3434 14.019C15.2671 13.8666 15.1907 13.7143 15.1144 13.5619C14.8854 12.9524 14.8854 12.1905 15.0381 11.5428C15.2289 10.8952 15.5724 10.3238 16.0686 10.0571C16.1831 9.98093 16.2594 9.94284 16.3358 9.90474L16.6793 9.79046L16.4884 10.0952C16.2213 10.4762 15.9541 11.0857 15.8014 11.7714C15.6487 12.419 15.5342 13.1809 15.5342 13.9428V14.3619L15.3434 14.019ZM10.7252 9.86665H10.7633C11.2213 9.33331 11.7938 8.95236 12.4045 8.60951C12.3282 8.49522 12.2137 8.38093 12.0992 8.26665L12.061 8.22855L12.0229 8.19046L11.9847 8.15236H11.9465V8.11427L11.9084 8.07617L11.8702 8.03808H11.832V7.99998H11.7938V7.96189H11.7557L11.7175 7.92379H11.6793V7.8857H11.6412V7.8476H11.603L11.5648 7.8095H11.5267V7.77141H11.4885V7.73331H11.4503L11.4122 7.69522H11.374V7.65712H11.3358L11.2977 7.61903H11.2595V7.58093C10.9923 7.46665 10.7633 7.31427 10.4962 7.19998H10.458H10.4198V7.16189H10.3817H10.3435V7.12379H10.3053H10.2672V7.0857H10.229H10.1908H10.1527V7.0476H10.1145H10.0763L10.0382 7.00951H9.99999H9.96182L9.92365 6.97141H9.88549H9.84732V6.93331H9.80915H9.77098H9.73282L9.69465 6.89522H9.65648H9.61832L9.58015 6.85712H9.54198H9.50381H9.46565V6.81903H9.42748H9.38931H9.35114C9.04581 6.70474 8.7023 6.66665 8.3588 6.59046H8.32063H8.28246H8.24429H8.20613H8.16796H8.12979C8.01529 6.55236 7.93896 6.55236 7.82445 6.55236H7.78629C7.51912 6.51427 7.29011 6.51427 7.06111 6.51427H7.02294C6.79394 6.55236 6.52677 6.55236 6.29776 6.59046L6.3741 6.66665L6.41226 6.70474L6.4886 6.78093L6.56493 6.81903L6.6031 6.89522H6.64127L6.67944 6.93331V6.97141H6.7176L6.75577 7.00951L6.79394 7.0476L6.83211 7.0857L6.87027 7.12379H6.90844V7.16189H6.94661L6.98477 7.23808L7.02294 7.27617H7.06111V7.31427H7.09928V7.35236L7.17561 7.39046V7.42855C7.44278 7.69522 7.70995 7.96189 7.93896 8.22855L7.97712 8.26665L8.01529 8.34284L8.09162 8.41903C8.39696 8.83808 8.7023 9.29522 8.96947 9.79046V9.82855V9.86665H9.00764V9.90474V9.94284L9.04581 9.98093C9.04581 10.019 9.08397 10.0952 9.12214 10.1714V10.2095V10.2476L9.16031 10.2857V10.3238L9.19848 10.4V10.4381V10.4762H9.23664V10.5143V10.5524V10.5905L9.27481 10.6286V10.7047V10.7428L9.31298 10.819C9.31298 10.819 9.31298 10.8571 9.31298 10.8952H9.27481L9.23664 10.9333L9.19848 10.9714L9.16031 11.0095H9.12214L9.08397 11.0476H9.04581L9.00764 11.0857L8.96947 11.1238H8.9313L8.89314 11.1619H8.85497V11.2L8.8168 11.2381H8.77864L8.74047 11.2762H8.7023V11.3143H8.66413L8.62597 11.3524L8.5878 11.3905H8.54963L8.51146 11.4286L8.4733 11.4666H8.43513V11.5047H8.39696H8.3588V11.5428H8.32063L8.28246 11.5809L8.24429 11.619H8.20613V11.6571H8.16796L8.12979 11.6952L8.09162 11.7333H8.05346L8.01529 11.7714L7.97712 11.8095H7.93896V11.8476H7.90079L7.86262 11.8857L7.82445 11.9238L7.78629 11.9619H7.74812V12H7.70995L7.67178 12.0381H7.63362L7.59545 12.0762L7.55728 12.1143L7.51912 12.1524H7.48095H7.51912H7.55728H7.59545H7.63362L7.67178 12.1905H7.70995H7.74812H7.78629H7.82445H7.86262L7.93896 12.2286H7.97712H8.01529H8.05346C8.05346 12.2286 8.09162 12.2666 8.12979 12.2666H8.20613L8.24429 12.3047H8.32063H8.3588L8.43513 12.3428H8.4733L8.54963 12.3809H8.5878H8.66413L8.7023 12.419H8.77864L8.85497 12.4571H8.89314V12.4952H8.9313H8.96947H9.00764C9.35114 12.6476 9.69465 12.7619 9.99999 12.9143C10.1145 12.9905 10.229 13.0286 10.3053 13.1047H10.3435C10.458 13.1809 10.5725 13.2571 10.6488 13.2952L10.687 13.3333L10.7252 13.3714L10.8015 13.4095L10.8397 13.4476L10.8778 13.4857H10.8397H10.8015H10.7633H10.7252V13.4476H10.687H10.6488C10.3053 13.3714 9.99999 13.3333 9.65648 13.2952L9.46565 13.2571C9.04581 13.1809 8.62597 13.1428 8.20613 13.1047C7.86262 13.0666 7.51912 13.0666 7.17561 13.0286H7.06111H7.02294H6.87027H6.7176H6.67944H6.64127H6.6031H6.56493H6.52677H6.4886H6.45043H6.41226H6.29776H6.2596H6.22143C4.31307 12.9905 2.4047 13.2571 1.03068 14.019C1.25968 14.0571 1.52685 14.0952 1.75586 14.1333C2.21387 14.2476 2.63371 14.3238 3.05355 14.4C3.35888 14.4762 3.66422 14.5524 3.96956 14.6286C4.42757 14.7047 4.80924 14.819 5.19091 14.9333C5.45808 15.0476 5.76342 15.1238 6.03059 15.2381L6.10693 15.2762H6.14509H6.18326H6.22143V15.3143H6.2596H6.29776L6.33593 15.3524H6.3741H6.41226L6.45043 15.3905H6.4886L6.52677 15.4286H6.56493H6.6031V15.4666H6.64127H6.67944L6.7176 15.5047H6.75577H6.79394V15.5428H6.83211H6.87027V15.5809H6.90844H6.94661L6.98477 15.619H7.02294L7.06111 15.6571L7.13744 15.6952H7.17561H7.21378L7.29011 15.7333L7.36645 15.7714L7.44278 15.8095L7.32828 15.7714L7.40461 15.8095H7.44278C6.06876 16.419 5.11458 17.6762 4.65657 19.1619L4.6184 19.2V19.2381V19.2762L4.58024 19.3143V19.3524V19.3905L4.54207 19.4286V19.4666V19.5047V19.5428L4.5039 19.5809V19.619V19.6571V19.6952L4.46573 19.7714V19.8095V19.8476L4.42757 19.8857V19.9238V19.9619V20V20.0381L4.3894 20.0762V20.1143V20.1524V20.1905V20.2286L4.35123 20.2666V20.3047V20.3428V20.3809V20.419V20.4571L4.31307 20.4952V20.5333V20.5714V20.6095V20.6476V20.6857V20.7238V20.7619L4.2749 20.8V20.9143V20.9524V21.0286V21.0666V21.1047C4.23673 21.4476 4.23673 21.7905 4.23673 22.1333V22.1714V22.2476V22.2857V22.3238L4.2749 22.3619V22.4V22.4381V22.4762V22.5143V22.5524V22.5905V22.6286V22.6666V22.7047V22.7428L4.31307 22.819V22.8571V22.9714V23.0095V23.0476C4.35123 23.2381 4.3894 23.4286 4.42757 23.619V23.5809C4.5039 23.8476 4.58024 24.0762 4.65657 24.3428C4.73291 24.5714 4.84741 24.8 4.96191 25.0286C5.30541 25.6762 5.76342 26.2857 6.29776 26.819V26.8571H6.33593L6.3741 26.8952L6.41226 26.9333C6.56493 27.0857 6.7176 27.2381 6.90844 27.3524V27.3905H6.94661V27.4286H6.98477L7.02294 27.4666L7.06111 27.5047H7.09928V27.5428H7.13744L7.17561 27.5809H7.21378L7.25195 27.6571C7.32828 27.6952 7.40461 27.7333 7.44278 27.7714H7.48095C7.51912 27.8095 7.55728 27.8476 7.63362 27.8857L7.67178 27.9238H7.70995V27.9619H7.74812H7.78629V28H7.82445L7.86262 28.0381H7.90079V28.0762H7.93896H7.97712C8.16796 28.1905 8.32063 28.3047 8.54963 28.3809H8.51146C8.9313 28.5714 9.38931 28.7619 9.84732 28.9143V28.8762C9.92365 28.9143 9.96182 28.9143 10.0382 28.9524C10.1908 28.9905 10.3435 29.0286 10.4962 29.0666C10.687 29.1047 10.8778 29.1428 11.0687 29.1809H11.1068L11.145 29.219H11.1832H11.2213H11.2595L11.3358 29.2571H11.374C11.4122 29.2571 11.4885 29.2571 11.5648 29.2571L11.7175 29.2952H11.7557H11.7938H11.832H11.8702V29.3333H11.9084H11.9465H11.9847H12.0229H12.061H12.1374H12.1755C12.2137 29.3333 12.2519 29.3714 12.29 29.3714H12.3282C12.519 29.3714 12.6717 29.3714 12.8625 29.4095H12.9007H12.9389H12.977C13.5495 29.4095 14.1984 29.4095 14.8472 29.3714C14.9617 29.3333 15.0762 29.3333 15.1907 29.3333H15.2671C15.3052 29.3333 15.3434 29.2952 15.3816 29.2952H15.4197C15.4961 29.2952 15.5342 29.2952 15.6106 29.2952C13.7785 29.0666 11.8702 28.2286 10.687 26.9333C10.6107 26.7809 10.4962 26.6666 10.4198 26.5524C10.3053 26.4 10.1908 26.2476 10.0763 26.0571V26.019C9.88549 25.6 9.73282 25.1809 9.65648 24.7238L9.61832 24.7619C9.58015 24.4571 9.54198 24.1905 9.58015 23.9238V23.8857V23.8095C9.61832 23.4666 9.65648 23.0857 9.77098 22.7809L9.80915 22.6666V22.5905L9.84732 22.5524V22.5143V22.4762L9.88549 22.4L9.92365 22.3619L9.96182 22.2857V22.2476C9.99999 22.1714 9.99999 22.1333 10.0382 22.0571L10.0763 22.019V21.9809L10.1145 21.9428V21.9047C10.1908 21.8286 10.229 21.7143 10.3053 21.6381V21.6L10.3435 21.5619L10.3817 21.5238C10.4198 21.4095 10.4962 21.3333 10.5725 21.219C10.9542 20.7619 11.374 20.3047 11.9084 19.9619C11.9465 19.8857 12.0229 19.8476 12.061 19.8095H12.0992L12.1374 19.7714L12.1755 19.7333L12.2137 19.6952H12.29V19.6571H12.3282L12.3664 19.619L12.4427 19.5809L12.4809 19.5428L12.519 19.5047H12.5954L12.6335 19.4666L12.7099 19.3905H12.748L12.8244 19.3524L12.8625 19.3143C12.9007 19.3143 12.977 19.2762 13.0534 19.2381L13.0915 19.2L13.1679 19.1619H13.206L13.2442 19.1238L13.3205 19.0857H13.3587L13.435 19.0476C14.0457 18.7428 14.6564 18.5524 15.2671 18.4C15.4961 18.3238 15.6869 18.2857 15.8777 18.2476C16.0686 18.2095 16.2594 18.1714 16.4121 18.1714C16.4884 18.1333 16.5648 18.1333 16.6411 18.1333H16.6793H16.7174H16.7556H16.7938H16.8319V18.0952H16.8701H16.9083H16.9464H16.9846H17.0228H17.0609H17.0991H17.1373H17.1754H17.2136H17.2518H17.2899H17.3281H17.3663H17.4426H17.4808H17.5189H17.5571H17.5953H17.6334H17.6716H17.7098H17.7479H17.7861H17.8243H17.8624V18.1333H17.9006H17.8624H17.8243H17.7861H17.7479V18.1714H17.7098H17.6716H17.6334H17.5953L17.5571 18.2095H17.5189H17.4808V18.2476H17.4426H17.4044L17.3663 18.2857C17.1373 18.3619 16.8701 18.4762 16.6029 18.5905V18.6286H16.5648H16.5266L16.4884 18.6666H16.4503V18.7047H16.4121L16.3739 18.7428H16.3358L16.2976 18.7809H16.2594L16.2213 18.819L16.1831 18.8571C16.5266 18.9714 16.8701 19.0476 17.1754 19.1619H17.2136L17.2518 19.2L17.4044 19.2381L17.4808 19.2762L17.5953 19.3143H17.6716L17.8243 19.3905C18.893 19.7714 19.809 20.1905 20.8013 20.7619L20.8395 20.8H20.8777V20.8381H20.9158L21.1067 20.9524V20.9143L21.1448 20.8762V20.8381V20.8C21.1448 20.7238 21.1067 20.6857 21.1067 20.6476V20.5333V20.4952V20.4571V20.419V20.3809V20.3428V20.3047V20.2666V20.2286V20.1905H21.0685V20.1524V20.1143V20.0762V20.0381V20L21.0303 19.9619V19.9238V19.8857V19.8476V19.7714L20.9922 19.7333V19.6952V19.6571L20.954 19.619V19.5809V19.5428V19.5047V19.4666H20.9158V19.4286V19.3905V19.3524C20.8777 19.2762 20.8395 19.2 20.8013 19.1238C20.725 18.8952 20.6105 18.6666 20.4578 18.4381H20.4197V18.4V18.3619H20.3815V18.3238C20.2288 18.1333 20.038 17.9428 19.8471 17.7524H19.809V17.7143H19.7708V17.6762H19.7326L19.6945 17.6381H19.6563L19.6181 17.6L19.58 17.5619H19.6181L19.6563 17.5238H19.6945C19.7326 17.5238 19.7708 17.4857 19.809 17.4857H19.8471H19.8853V17.4476H19.9235H19.9616H19.9998H20.038L20.0761 17.4095H20.1143H20.1525H20.1906L20.2288 17.3714H20.267H20.3052H20.3433H20.3815V17.3333H20.4197H20.4578H20.496H20.5342L20.5723 17.2952H20.6105H20.6487H20.6868H20.725V17.2571H20.7632H20.8013H20.8395H20.8777H20.9158V17.219H20.954H20.9922H21.0303H21.0685V17.1809H21.1067H21.1448H21.183H21.2212L21.2593 17.1428H21.2975H21.3357C21.9082 17.0286 22.5189 16.9524 23.0914 16.9143C23.7784 16.8381 24.4272 16.8 25.1906 16.7238C25.3051 16.7238 25.4196 16.7238 25.4959 16.6857C25.4959 16.6857 25.9921 16.6476 26.0302 16.6476H26.0684H26.1066V16.6095H26.1447H26.1829H26.2211H26.2592H26.2974H26.3356V16.5714H26.3737H26.4119H26.4501L26.4882 16.5333H26.5264H26.5646H26.6027V16.4952H26.6409H26.6791L26.7173 16.4571H26.7554H26.7936V16.419H26.8318H26.8699C26.9081 16.3809 26.9463 16.3428 26.9844 16.3428V16.3047C27.0608 16.2666 27.0989 16.2286 27.1371 16.1905V16.1524C27.1753 16.1143 27.1753 16.0762 27.2134 16.0381C27.2516 15.9619 27.2516 15.8857 27.2516 15.8095C27.2516 15.8095 27.2516 15.7714 27.2134 15.7714V15.7333V15.6952V15.6571H27.1753V15.619H27.1371C27.0608 15.5428 26.8699 15.4666 26.6409 15.3905C26.5264 15.3524 26.4501 15.3524 26.3737 15.3143H26.3356L26.2211 15.2762V15.2381L26.1447 15.2H26.1066H26.0684L26.0302 15.1619H25.9921L25.9157 15.1238H25.8776H25.8394V15.0857H25.8012H25.7631V15.0476H25.7249H25.6867L25.6486 15.0095H25.6104L25.5722 14.9714H25.5341H25.4959L25.4577 14.9333L25.4196 14.8952H25.3814L25.3432 14.8571H25.3051L25.2669 14.819C25.0761 14.7428 24.8852 14.6286 24.6944 14.4762H24.6181V14.4381H24.5799V14.4L24.5035 14.3619L24.4654 14.3238L24.389 14.2857L24.3509 14.2476H24.3127V14.2095H24.2745L24.2364 14.1714L24.1982 14.1333H24.16V14.0952H24.1219V14.0571H24.0837V14.019H24.0455L24.0074 13.9809L23.9692 13.9428L23.931 13.9047L23.8929 13.8666L23.8547 13.8286L23.8165 13.7905L23.7784 13.7524V13.7143H23.7402C23.5875 13.5238 23.473 13.3714 23.3967 13.219V13.1809H23.3585V13.1428V13.1047H23.3204H23.3585L23.3967 13.1428H23.4349C23.5875 13.2571 23.7784 13.3333 24.0074 13.4476L24.0837 13.4857L24.2364 13.5619H24.2745H24.3127H24.3509V13.6H24.389H24.4272L24.4654 13.6381H24.5035H24.5417L24.5799 13.6762H24.6181H24.6562V13.7143H24.6944H24.7326L24.7707 13.7524H24.8089H24.8471C24.9997 13.8286 25.1524 13.8666 25.3051 13.9047L25.3432 13.9428C25.5722 13.9809 25.8012 14.0571 25.9921 14.0952C26.4882 14.2095 26.9081 14.3238 27.3279 14.3619C27.4043 14.4 27.5188 14.4 27.5951 14.4C27.7096 14.4381 27.7859 14.4381 27.9004 14.4381C28.0531 14.4381 28.2058 14.4381 28.3966 14.4H28.4348H28.4729H28.5111V14.3619H28.5493H28.5874H28.6256H28.6638H28.702V14.3238H28.7401H28.7783H28.8165V14.2857H28.8546H28.8928L28.9691 14.2476H29.0073H29.0455L29.0836 14.2095H29.1218L29.1981 14.1714L29.2363 14.1333H29.2745V14.0952C29.4653 14.019 29.5798 13.9047 29.7325 13.7905V13.7524C29.8088 13.6762 29.8851 13.6 29.9615 13.4857H29.9996V13.4476H30.0378V13.4095H30.076V13.3714C30.1523 13.2952 30.1905 13.2571 30.2286 13.219L30.2668 13.1809C30.3431 13.1047 30.3813 13.0666 30.4195 13.0286H30.4576V12.9905H30.4958C30.7248 12.8 30.992 12.6476 31.221 12.4571C31.45 12.2666 31.6027 12.0762 31.679 11.8857V11.8476H31.7172V11.8095V11.7714C31.7553 11.6952 31.7553 11.619 31.7553 11.5428V11.5047C31.7553 11.3905 31.7172 11.3143 31.6408 11.2381C31.5645 11.1238 31.4118 11.0095 31.221 10.8952V10.8571H31.1828L31.1447 10.819H31.1065C31.0302 10.7809 30.9538 10.7047 30.8393 10.6666C30.763 10.6286 30.6866 10.5905 30.6103 10.5524H30.5721V10.5143L30.3813 10.4381H30.3431V10.4H30.305H30.2668L30.1523 10.3238H30.1141L30.0378 10.2857L29.9996 10.2476C29.8088 10.1714 29.618 10.0952 29.4271 10.019H29.389V9.98093H29.3508H29.3126H29.2745V9.94284L29.16 9.90474H29.1218L29.0073 9.86665L28.9691 9.82855L28.8928 9.79046H28.8546H28.8165L28.702 9.75236V9.71427H28.6638H28.6256L28.5874 9.67617H28.5493L28.4729 9.63808H28.4348H28.3966L28.3584 9.59998H28.2821V9.56189L28.0913 9.52379H28.0531C27.8623 9.4476 27.6333 9.37141 27.4043 9.29522C27.2898 9.25712 27.2134 9.25712 27.0989 9.21903C26.9844 9.18093 26.9081 9.14284 26.7936 9.14284V9.10474H26.7554H26.7173L26.5264 9.06665L26.4882 9.02855H26.4119H26.3737L26.2592 8.99046H26.2211L26.1829 8.95236H26.0684L26.0302 8.91427H25.9921C25.7631 8.87617 25.4959 8.79998 25.2669 8.76189H25.2287V8.72379H25.1906H25.1524H25.0761H25.0379V8.6857H24.9997H24.9234H24.8852L24.8471 8.6476H24.8089H24.7707H24.7326H24.6944L24.5035 8.60951H24.4654V8.57141H24.4272H24.389L24.1219 8.53331H24.0837C24.0074 8.49522 23.8929 8.49522 23.7784 8.45712C23.5112 8.41903 23.2059 8.38093 22.9387 8.34284H22.9005H22.8624H22.8242H22.786L22.7097 8.30474H22.6715H22.6334H22.5952H22.557H22.5189H22.4807H22.4425H22.4044L22.328 8.26665H22.2898H22.2517H22.2135H22.099H22.0608H22.0227L21.9845 8.22855H21.9463H21.7555H21.7173H21.6792H21.641L21.6028 8.19046H21.412H21.3738C21.0685 8.15236 20.7632 8.15236 20.4578 8.11427H20.3815H20.3433H20.3052H20.2288H20.1906H20.1525H20.1143H20.038H19.9998H19.9616H19.8853H19.8471H19.809H19.7708H19.6945H19.6563H19.6181H19.5418H19.5036H19.4655H19.2746H19.2365H19.1983H19.1601H18.893H18.8548H18.8166H18.7785C18.3968 8.11427 18.0533 8.11427 17.7098 8.15236H17.5953H17.5571H17.5189H17.4044H17.3663L17.2518 8.19046H17.2136H17.1754H17.0991H17.0609H16.8701L16.8319 8.22855H16.7556H16.7174H16.5648H16.5266L16.4503 8.26665H16.4121H16.3739H16.2213H16.1831H16.1449L16.1068 8.30474H16.0686H15.8777C15.4197 8.38093 14.9999 8.45712 14.5419 8.53331L14.4656 8.57141C14.3892 8.57141 14.3129 8.60951 14.2366 8.60951L14.1602 8.6476L13.9694 8.6857H13.9312L13.8167 8.72379L13.664 8.76189H13.6259L13.5114 8.79998L13.3587 8.83808H13.3205L13.206 8.87617H13.1679L13.0534 8.91427L13.0152 8.95236H12.9389L12.9007 8.99046H12.8625L12.7862 9.02855H12.748H12.7099L12.6335 9.06665H12.5954L12.4809 9.10474L12.4427 9.14284H12.4045L12.3282 9.18093H12.29C11.7557 9.37141 11.2213 9.59998 10.7633 9.86665H10.7252ZM4.73291 26.8571L1.41235 30.0571C1.56502 30.4762 1.75586 30.8952 1.98486 31.2381L5.61075 27.7333C5.34358 27.5047 5.11458 27.2762 4.88557 27.0476C4.80924 26.9714 4.77107 26.9333 4.73291 26.8571ZM30.6103 0.952362H28.8546L22.2898 7.31427H22.5189C22.9769 7.39046 23.3967 7.42855 23.8547 7.50474L30.6103 0.952362ZM3.62605 25.3333L0.992513 27.8857C0.992513 28.419 1.06885 28.9143 1.18335 29.3714L4.31307 26.3619C4.04589 26.019 3.81689 25.6762 3.62605 25.3333ZM27.8623 0.952362H26.1829L19.7326 7.19998C20.267 7.19998 20.8013 7.19998 21.3738 7.23808L27.8623 0.952362ZM2.78637 23.5428L0.954346 25.3333V26.9333L3.28255 24.7238C3.09171 24.3428 2.93904 23.9238 2.78637 23.5428ZM25.1524 0.952362H23.5112L16.9083 7.35236C17.0991 7.31427 17.3281 7.27617 17.5571 7.27617C17.9006 7.23808 18.2823 7.23808 18.664 7.19998L25.1524 0.952362ZM2.36653 21.3714L0.954346 22.7047V24.3047L2.59554 22.7428C2.48104 22.3238 2.4047 21.9428 2.36653 21.5238V21.3714ZM22.4044 0.952362H20.8013L13.5877 7.92379C14.1984 7.77141 14.8854 7.61903 15.6487 7.50474L22.4044 0.952362ZM2.55737 18.5905L0.954346 20.1143V21.6762L2.32837 20.3428C2.36653 19.7714 2.4047 19.1619 2.55737 18.5905ZM19.6945 0.952362H18.1296L11.9847 6.85712C12.061 6.93331 12.1374 6.97141 12.2137 7.00951C12.4427 7.16189 12.6717 7.35236 12.8625 7.54284L19.6945 0.952362ZM8.16796 10.5905L7.82445 10.8952C7.93896 10.819 8.05346 10.7428 8.16796 10.6666C8.16796 10.6286 8.16796 10.6286 8.16796 10.5905ZM3.24438 15.3143L0.954346 17.5238V19.0476L2.93904 17.1047C3.12988 16.5333 3.39705 16 3.70239 15.4286C3.54972 15.3905 3.39705 15.3524 3.24438 15.3143ZM16.9464 0.952362H15.4197L10.1908 6.01903C10.3053 6.05712 10.458 6.13331 10.6107 6.17141C10.8015 6.2476 11.0305 6.32379 11.2595 6.43808L16.9464 0.952362ZM7.13744 8.95236L3.77872 12.2286C4.31307 12.1524 4.88557 12.0762 5.45808 12.0381L7.74812 9.82855C7.59545 9.52379 7.36645 9.25712 7.13744 8.95236ZM1.06885 14.819L0.954346 14.9333V16.419L2.32837 15.0857C1.94669 14.9714 1.48869 14.8952 1.06885 14.819ZM14.2366 0.952362H12.748L7.97712 5.56189C8.39696 5.59998 8.8168 5.67617 9.23664 5.75236L14.2366 0.952362ZM5.91609 7.54284L0.954346 12.3428V12.8762C1.37419 12.7619 1.79403 12.6095 2.25203 12.5333L6.6031 8.30474C6.41226 8.03808 6.14509 7.77141 5.91609 7.54284ZM11.4885 0.952362H10.0382L5.22908 5.59998C5.76342 5.52379 6.29776 5.4857 6.79394 5.4857L11.4885 0.952362ZM4.5039 6.2857L0.954346 9.75236V11.1238L5.30541 6.93331C5.03824 6.70474 4.77107 6.51427 4.5039 6.2857ZM8.77864 0.952362H7.36645L0.954346 7.16189V8.49522L8.77864 0.952362ZM6.03059 0.952362H4.69474L0.954346 4.53331V5.86665L6.03059 0.952362ZM3.32072 0.952362H1.98486L0.954346 1.94284V3.23808L3.32072 0.952362ZM2.32837 31.7714C2.55737 32.1143 2.86271 32.419 3.16805 32.7238L7.21378 28.8381C6.83211 28.6095 6.45043 28.3809 6.10693 28.1143L2.32837 31.7714ZM12.519 23.6952L16.4121 19.9238C16.1068 19.8476 15.8014 19.7333 15.4579 19.6571C15.2289 19.7333 14.9617 19.8857 14.6946 20.0381C14.4656 20.1524 14.2747 20.2666 14.1221 20.3809L12.9007 21.5619C12.8244 21.7143 12.7099 21.8666 12.6717 22.019C12.519 22.3238 12.4427 22.6666 12.4427 23.0095C12.4427 23.1619 12.4427 23.3143 12.4809 23.5047C12.4809 23.5809 12.4809 23.619 12.519 23.6952ZM28.2821 8.45712L32.0225 4.83808V3.0857L26.8699 8.07617C27.0608 8.11427 27.2134 8.15236 27.3661 8.19046C27.6714 8.26665 27.9768 8.38093 28.2821 8.45712ZM3.62605 33.1428C3.93139 33.4095 4.31307 33.6762 4.69474 33.9047L9.12214 29.6C8.66413 29.4857 8.20613 29.2952 7.78629 29.1047L3.62605 33.1428ZM13.7022 25.219L18.435 20.6476C17.9769 20.4571 17.5189 20.3047 17.0609 20.1524L12.748 24.3047C12.7862 24.3428 12.8244 24.3809 12.8625 24.419C12.9389 24.5714 13.0534 24.6857 13.206 24.8381C13.3205 24.9524 13.5114 25.0666 13.7022 25.219ZM30.2668 9.18093L32.0225 7.46665V5.67617L28.931 8.6857C29.389 8.83808 29.847 8.99046 30.2668 9.18093ZM5.19091 34.2095C5.57259 34.4381 5.99242 34.6286 6.45043 34.819L11.3358 30.0952C10.8397 30.019 10.3435 29.9428 9.84732 29.8286L9.77098 29.7905L5.19091 34.2095ZM15.5724 26.019L20.3052 21.4476C19.9235 21.2571 19.5036 21.1047 19.0075 20.8762L14.1984 25.4857C14.5037 25.6381 14.8091 25.7905 15.1144 25.8666C15.2671 25.9428 15.4197 25.9809 15.5724 26.019ZM21.9082 19.8857L24.1982 17.6762C23.8165 17.6762 23.3967 17.6762 23.0914 17.7143C22.8242 17.7524 22.4807 17.7905 22.1372 17.8286L21.4883 18.4762C21.7173 18.9714 21.87 19.4286 21.9082 19.8857ZM32.0225 10.019V8.26665L30.8393 9.4095C31.1065 9.52379 31.3355 9.63808 31.5645 9.75236C31.7172 9.82855 31.908 9.94284 32.0225 10.019ZM6.98477 35.0857C7.36645 35.2381 7.78629 35.4286 8.20613 35.5809L8.3588 35.619L13.9312 30.2095C13.3205 30.2476 12.6717 30.2476 12.061 30.1714L6.98477 35.0857ZM17.9388 26.3619L29.4653 15.2381C29.1218 15.3905 28.6638 15.4666 28.1294 15.4666C28.2058 15.5809 28.2058 15.8095 28.1676 15.9619C28.0913 16.4952 27.6333 17.0286 27.1371 17.2571C26.5264 17.5238 25.7249 17.6381 25.1524 17.6762C25.1142 17.6762 25.0379 17.6762 24.9997 17.6762L21.9463 20.6095C21.9463 21.1047 21.87 21.6381 21.8318 22.2095C21.4502 22.019 21.1067 21.8666 20.8395 21.7143L16.1831 26.1714C16.6793 26.2857 17.1373 26.3619 17.5953 26.3619C17.7098 26.3619 17.8243 26.3619 17.9388 26.3619ZM8.89314 35.8095C9.27481 35.9619 9.65648 36.0762 10.0382 36.2286C10.1527 36.2666 10.229 36.3047 10.3435 36.3428L16.5648 30.3238C16.5266 30.2095 16.4503 30.0571 16.4121 29.9428C15.8777 30.0571 15.3434 30.1333 14.7327 30.1714L8.89314 35.8095ZM20.9158 26.1333L32.0225 15.3905V13.4857L18.7021 26.3619C19.4273 26.3238 20.1525 26.2476 20.9158 26.1333ZM10.8397 36.5333C11.3358 36.7238 11.7938 36.9143 12.2137 37.1428L17.5953 31.9619C17.2899 31.619 17.0228 31.2381 16.7938 30.7809L10.8397 36.5333ZM24.5035 25.2952L32.0225 18.019V16.0762L21.7555 25.9809C22.6715 25.8286 23.5875 25.6 24.5035 25.2952ZM12.6335 37.4095C13.0534 37.6381 13.4732 37.9047 13.8549 38.2095L19.122 33.1428C18.7021 32.9143 18.2823 32.6095 17.9388 32.2666L12.6335 37.4095ZM21.2593 31.0476L26.3356 26.1714C24.5417 27.2 21.4502 29.0286 21.2593 31.0476ZM29.8851 22.7428L32.0225 20.6476V18.6666L25.5341 24.9524C27.0989 24.3809 28.5874 23.619 29.8851 22.7428ZM14.1984 38.5143C14.5419 38.819 14.8854 39.1619 15.1907 39.5428L21.0303 33.9047C20.5342 33.7524 20.038 33.6 19.5418 33.3714L19.5036 33.3333L14.1984 38.5143ZM22.0227 32.9524L32.0225 23.3143V21.2571L31.679 21.6C30.8775 22.7809 29.6561 23.8476 28.3584 24.8L21.2975 31.619C21.3738 31.9619 21.4883 32.3047 21.7555 32.6476C21.8318 32.7619 21.9463 32.8762 22.0227 32.9524ZM15.4579 39.8857C15.7632 40.2667 16.0304 40.7238 16.2594 41.1809L17.4808 40C17.5953 39.8476 17.7098 39.6952 17.8243 39.5428C18.3968 38.7809 19.0838 38.2095 19.8471 37.7143L23.2822 34.4C22.6715 34.2857 22.099 34.1714 21.4883 34.0571L15.4579 39.8857ZM23.6257 34.0571L32.0225 25.9428V23.8476L22.328 33.219C22.7097 33.5619 23.1677 33.8286 23.6257 34.0571ZM16.4503 41.4857L16.4884 41.6381C16.5648 41.4857 16.6411 41.3714 16.6793 41.2571L16.4503 41.4857ZM21.1448 36.9524C21.7173 36.6857 22.328 36.419 22.9769 36.2286C23.5494 36 24.16 35.8095 24.7707 35.5809L31.9462 28.6857C31.9843 28.2286 32.0225 27.7333 32.0225 27.2762V26.4381L24.0074 34.2095L24.16 34.2476L24.9997 34.5905L24.0837 34.4762L23.7402 34.4381L21.1448 36.9524ZM25.6104 35.2381C27.2898 34.5905 28.8928 33.7143 30.1141 32.4571C30.992 31.5047 31.5263 30.4381 31.8317 29.2571L25.6104 35.2381Z" fill="#E5F811"/>
<path fill-rule="evenodd" clip-rule="evenodd" d="M51.9077 18.5143C49.5414 18.8953 50.0757 18.8572 51.2207 14.0953C51.5642 12.7238 51.5642 12.9524 53.5489 12.6476C54.8466 12.4572 54.0833 13.8286 53.5108 16.1524C53.1291 17.8286 53.1673 18.3238 51.9077 18.5143ZM58.2817 19.3143L63.6633 18.4381C63.6251 18.0572 63.5869 18.2476 63.5869 17.6C63.5869 16.4191 64.6556 12.9143 64.9991 11.4667C65.2281 10.4762 65.4953 9.37146 65.7625 8.41908L66.4876 5.33336L61.6786 6.09527L61.4114 6.13336C61.4114 6.13336 61.5259 6.70479 61.5259 6.74289C61.5641 6.97146 61.5641 7.27622 61.4877 7.65717C61.4496 8.00003 61.3732 8.2286 61.2969 8.49527L58.9687 17.8286C58.7779 18.4381 58.5488 18.781 58.2817 19.3143ZM78.9683 13.6381C78.9683 16.0381 81.0294 15.6953 82.5942 15.4286C84.4644 15.1238 86.3728 14.8572 88.2811 14.5524C88.3575 14.0572 89.0063 12.5715 89.0445 12.381C88.3956 12.6476 87.8231 12.8 87.2506 12.8762C86.4873 13.0286 84.7698 13.2953 84.1973 13.3334C83.7774 13.3334 83.5102 13.181 83.5484 12.7238L84.0064 10.8953C84.1591 10.3238 84.3118 9.63812 84.4644 9.0667C84.6171 8.41908 84.6934 7.69527 85.4186 7.58098C87.2888 7.27622 89.3117 6.85717 90.4185 7.00955C90.4949 6.43812 90.7239 4.87622 90.7239 4.87622C89.159 5.10479 87.5941 5.33336 86.0674 5.60003C80.6095 6.47622 80.7622 5.98098 79.3882 11.6572C79.2355 12.1905 78.9683 13.1429 78.9683 13.6381ZM72.0219 15.2762C69.541 15.6572 69.7319 15.7334 70.1135 13.981C70.228 13.6 70.2662 13.181 70.6097 12.9905C70.9914 12.7619 72.7471 12.5715 73.3577 12.4572C73.2432 12.9905 73.0906 13.4857 72.9379 14.0953C72.7852 14.7048 72.7852 15.1619 72.0219 15.2762ZM66.4876 10.8572C66.9456 10.7048 67.2892 10.4381 67.8235 10.3619L73.4341 9.44765C74.2356 9.33336 73.8539 10.3619 73.6631 10.5143C73.3959 10.7429 68.4342 11.3905 67.8998 11.5048C66.9838 11.7334 66.2968 12.4191 65.9533 13.181C65.419 14.4762 64.8464 16.5715 66.0296 17.3715C66.4113 17.6381 66.9838 17.8667 67.6708 17.7524C68.625 17.6381 70.457 17.4096 71.5257 17.1048C71.9456 16.9524 72.0219 16.9143 72.3654 16.5334L72.6326 16.1905C72.6326 16.6096 72.6326 16.6476 72.7089 16.9524L77.289 16.2286C76.5256 14.7429 79.35 9.8286 78.205 8.00003C77.8615 7.4286 77.2126 6.97146 76.2585 7.12384L68.6632 8.30479C68.2433 8.38098 67.8998 8.45717 67.6327 8.60955C67.48 8.72384 67.3655 8.83812 67.251 9.10479C66.8693 9.7905 66.4876 10.8572 66.4876 10.8572ZM90.0368 13.1429V14.2476L94.8078 13.4857C94.6932 12.3048 94.5787 12.6476 95.0368 10.8953C95.1894 10.3619 95.1894 10.1715 95.3803 9.98098C95.4566 9.8286 95.6474 9.71431 95.8764 9.56193L96.5634 11.3143C96.6779 11.6572 96.7543 11.8476 96.8688 12.1905C97.0215 12.4953 97.0978 12.8381 97.2505 13.1048L102.212 12.3429C101.792 11.7715 101.716 11.8096 101.411 11.0476C101.182 10.5143 99.6932 6.55241 99.6932 6.28574C99.6932 6.13336 101.334 4.76193 101.563 4.53336L103.548 2.81908L99.7695 3.4286C99.5787 4.19051 98.5863 4.91431 98.0138 5.40955C97.6703 5.71431 97.365 6.01908 97.0215 6.32384L95.9909 7.16193C96.1054 6.5905 96.2581 6.09527 96.4108 5.48574C96.6016 4.68574 97.6321 0.761934 97.6321 0.380981L92.8231 1.14289C92.7085 1.14289 92.6322 1.18098 92.6322 1.18098C92.594 1.18098 92.6322 1.40955 92.6322 1.44765C92.6704 1.63812 92.7085 1.94289 92.6704 2.51431C92.5177 3.69527 90.0368 12.8381 90.0368 13.1429ZM51.8696 11.3524C52.0604 10.7048 52.2131 10.0953 52.3658 9.44765C52.4803 8.99051 52.8238 8.00003 52.8238 7.50479L48.0147 8.2667L47.8238 8.30479C47.8238 8.2667 47.9002 8.99051 47.9002 9.14289C47.9002 9.33336 47.862 9.56193 47.8238 9.8286L45.3048 19.9619C45.0758 20.6857 44.9231 20.9143 44.6178 21.4857L49.6177 20.6857C49.6177 20.4191 49.694 20.1905 49.7704 19.9619C49.8085 20 49.9994 20.3048 50.2284 20.4191C50.3811 20.4953 50.6101 20.5334 50.8772 20.4953L55.1901 19.8096C57.4802 19.4286 57.8237 16.8381 58.3198 14.7429C58.7397 13.0286 59.2359 11.6572 57.9 10.6667C57.4802 10.3619 56.9077 10.2096 56.1443 10.3619L52.8238 10.8572C52.5948 10.9334 52.3658 11.0096 52.2131 11.1238C52.1367 11.1619 52.0986 11.2381 52.0222 11.3143C52.0222 11.3524 51.9459 11.4286 51.9459 11.4667L51.8696 11.3524Z" fill="#2B2A29"/>
<path fill-rule="evenodd" clip-rule="evenodd" d="M83.5867 25.6762C81.2203 26.0571 81.5638 25.9809 82.2126 23.2762C82.3653 22.6286 82.518 22.0952 82.6325 21.5238C83.0141 19.9619 83.0141 20.1905 85.1515 19.8476C86.1439 19.6952 85.5714 21.0286 85.3805 21.7524L84.6553 24.7619C84.4645 25.3714 84.3118 25.5619 83.5867 25.6762ZM111.411 21.2571C108.968 21.6762 109.121 21.7143 109.54 20C109.617 19.5809 109.693 19.1619 109.998 18.9714C110.38 18.7809 112.174 18.5524 112.746 18.4381C112.632 19.0095 112.479 19.5047 112.365 20.0762C112.212 20.6857 112.212 21.1428 111.411 21.2571ZM105.915 16.8762C106.373 16.6857 106.678 16.419 107.25 16.3428L112.823 15.4667C113.624 15.3143 113.281 16.3428 113.09 16.4952C112.785 16.7238 107.861 17.3714 107.327 17.5238C106.373 17.7143 105.686 18.4381 105.38 19.2C104.846 20.4571 104.273 22.5524 105.456 23.3905C105.838 23.6571 106.411 23.8857 107.098 23.7714C108.014 23.619 109.884 23.4286 110.914 23.0857C111.372 22.9714 111.449 22.8952 111.754 22.5143L112.059 22.1714C112.059 22.5905 112.059 22.6666 112.136 22.9714L116.716 22.2476C115.914 20.7238 118.739 15.8095 117.632 14.019C117.288 13.4476 116.64 12.9524 115.685 13.1047L108.09 14.3238C107.632 14.4 107.289 14.4381 107.021 14.6286C106.907 14.7047 106.754 14.8571 106.64 15.0857C106.296 15.8095 105.915 16.8381 105.915 16.8762ZM70.1899 27.8095C67.7091 28.1905 67.8999 28.2666 68.2816 26.5143C68.3961 26.1333 68.4343 25.7143 68.7778 25.5238C69.1594 25.2952 70.9151 25.1047 71.5258 24.9905C71.4113 25.5238 71.2586 26.019 71.106 26.6286C70.9915 27.2381 70.9915 27.6952 70.1899 27.8095ZM64.6557 23.3905C65.1137 23.2381 65.4572 22.9714 65.9915 22.8952L71.6021 21.9809C72.4036 21.8666 72.0601 22.8952 71.8311 23.0476C71.564 23.2762 66.6404 23.9238 66.106 24.0381C65.1519 24.2666 64.4649 24.9524 64.1595 25.7143C63.6252 27.0095 63.0527 29.1047 64.1977 29.9047C64.6175 30.1714 65.1519 30.4 65.8389 30.3238C66.7931 30.1714 68.6633 29.9428 69.6938 29.6381C70.1518 29.5238 70.2281 29.4476 70.5335 29.0666L70.8388 28.7238C70.8388 29.1428 70.8388 29.1809 70.9151 29.4857L75.4952 28.7619C74.6937 27.2762 77.5181 22.3619 76.4112 20.5333C76.0295 19.9619 75.4189 19.5047 74.4647 19.6571L66.8694 20.8381C66.4114 20.9143 66.0679 20.9905 65.8007 21.1428C65.648 21.2571 65.5335 21.3714 65.419 21.6381C65.0755 22.3238 64.6939 23.3905 64.6557 23.3905ZM92.4796 17.4476C92.4796 19.0095 91.0293 22.9333 91.0293 24.1143C91.0293 25.219 92.1361 26.1333 93.243 25.9809L97.594 25.2952C98.1284 25.1809 98.3574 24.8762 98.6246 24.5714C98.6246 24.9143 98.6627 24.8 98.7009 25.1047L102.937 24.419C102.556 23.6952 103.014 22.3619 103.243 21.6L104.922 14.819L99.8841 15.619C99.9604 16.7619 100.075 16.5714 99.6169 18.3238C99.4261 18.9714 99.2734 19.5809 99.1207 20.2667C98.9681 20.9143 98.8154 21.4857 98.6627 22.1333C98.3192 23.5047 98.2429 23.3524 96.4109 23.6571C95.1895 23.8476 95.6857 22.9714 96.0292 21.5238L96.9452 17.8667C97.0597 17.4476 97.3269 16.4571 97.365 16.0381L92.2888 16.8381C92.4033 16.9905 92.4796 17.1428 92.4796 17.4476ZM77.2127 26.1714C77.2127 27.4666 78.3577 28.3428 79.5791 28.1524L83.3577 27.5428C83.663 27.5047 83.892 27.2762 84.0447 27.1238C83.9302 27.7714 83.7393 28.3809 83.5867 29.0666L83.3195 30.0571L83.3958 30.9333L88.1667 30.1714C88.1286 30.0952 88.1286 30.019 88.1286 29.9428C87.8996 28.8381 88.2812 28.0381 88.5866 26.819L90.2278 20.1524C90.4186 19.3524 90.6476 18.4762 90.9911 17.7143C91.1056 17.4857 91.2583 17.1809 91.3346 16.9905L86.3347 17.7905C86.3347 18.019 86.2584 18.2476 86.182 18.5143C86.1057 18.4381 86.0675 18.3238 85.9912 18.2476C85.8004 18.019 85.4187 17.9047 84.9988 17.9809L80.9913 18.6286C79.3501 18.8952 78.6631 20 78.2432 21.3714C77.8997 22.3619 77.2127 25.219 77.2127 26.1714Z" fill="#2B2A29"/>
</svg>
