<svg width="191" height="71" viewBox="0 0 191 71" fill="none" xmlns="http://www.w3.org/2000/svg">
<path fill-rule="evenodd" clip-rule="evenodd" d="M53.2121 0V44.0139C53.2121 47.5792 52.1651 50.7758 49.7016 53.419C46.5606 56.8 41.8183 58.3983 37.5687 59.8736C30.7325 62.271 28.8848 65.4675 26.6061 71C24.5121 65.6519 22.5412 62.271 15.6434 59.8736C14.658 59.5662 13.6726 59.1974 12.6871 58.8286C5.54293 56.1853 0 52.374 0 44.0139V0H53.2121Z" fill="black"/>
<path fill-rule="evenodd" clip-rule="evenodd" d="M51.6727 1.53687H50.9337L39.7862 12.2944C40.5869 12.4174 41.3875 12.6018 42.1882 12.7247L51.6727 3.56544V1.53687ZM29.9321 22.6217C29.809 22.3758 29.6858 22.1299 29.5626 21.8841C29.1931 20.9005 29.1931 19.6711 29.4394 18.626C29.7474 17.581 30.3017 16.6589 31.1023 16.2286C31.2871 16.1057 31.4103 16.0442 31.5334 15.9828L32.0877 15.7983L31.7798 16.2901C31.3487 16.9048 30.9791 17.8884 30.6712 18.9949C30.4249 20.0399 30.2401 21.2693 30.2401 22.4988V23.175L29.9321 22.6217ZM39.6015 18.2572C40.5253 18.749 40.9564 17.9499 41.2028 17.9499C41.5107 17.8269 41.1412 17.3351 40.5253 16.9663C40.0326 16.6589 39.2935 16.536 39.1088 16.7204C38.924 16.8434 38.6777 17.7654 39.6015 18.2572ZM27.3454 22.6217C27.2223 22.3758 27.0991 22.1299 26.9759 21.8841C26.6064 20.9005 26.6064 19.6711 26.8527 18.626C27.1607 17.581 27.715 16.6589 28.5156 16.2286C28.7004 16.1057 28.8236 16.0442 28.9467 15.9828L29.501 15.7983L29.1931 16.2901C28.762 16.9048 28.3924 17.8884 28.0845 18.9949C27.8382 20.0399 27.6534 21.2693 27.6534 22.4988V23.175L27.3454 22.6217ZM24.7587 22.6217C24.6356 22.3758 24.5124 22.1299 24.3892 21.8841C24.0197 20.9005 24.0197 19.6711 24.266 18.626C24.574 17.581 25.1283 16.6589 25.9289 16.2286C26.1137 16.1057 26.2369 16.0442 26.36 15.9828L26.9143 15.7983L26.6064 16.2901C26.1753 16.9048 25.7442 17.8884 25.4978 18.9949C25.2515 20.0399 25.0667 21.2693 25.0667 22.4988V23.175L24.7587 22.6217ZM17.3066 15.9213H17.3682C18.1072 15.0607 19.0311 14.446 20.0165 13.8927C19.8933 13.7083 19.7085 13.5239 19.5238 13.3395L19.4622 13.278L19.4006 13.2165L19.339 13.155H19.2774V13.0936L19.2158 13.0321L19.1542 12.9706H19.0926V12.9092H19.0311V12.8477H18.9695L18.9079 12.7862H18.8463V12.7247H18.7847V12.6633H18.7231L18.6615 12.6018H18.5999V12.5403H18.5384V12.4789H18.4768L18.4152 12.4174H18.3536V12.3559H18.292L18.2304 12.2944H18.1688V12.233C17.7377 12.0486 17.3682 11.8027 16.9371 11.6183H16.8755H16.8139V11.5568H16.7523H16.6907V11.4953H16.6291H16.5675V11.4338H16.5059H16.4444H16.3828V11.3724H16.3212H16.2596L16.198 11.3109H16.1364H16.0748L16.0132 11.2494H15.9517H15.8901V11.1879H15.8285H15.7669H15.7053L15.6437 11.1265H15.5821H15.5205L15.4589 11.065H15.3974H15.3358H15.2742V11.0035H15.2126H15.151H15.0894C14.5967 10.8191 14.0424 10.7576 13.4881 10.6347H13.4265H13.365H13.3034H13.2418H13.1802H13.1186C12.9338 10.5732 12.8107 10.5732 12.6259 10.5732H12.5643C12.1332 10.5118 11.7637 10.5118 11.3941 10.5118H11.3325C10.963 10.5732 10.5319 10.5732 10.1624 10.6347L10.2855 10.7576L10.3471 10.8191L10.4703 10.9421L10.5935 11.0035L10.6551 11.1265H10.7167L10.7783 11.1879V11.2494H10.8398L10.9014 11.3109L10.963 11.3724L11.0246 11.4338L11.0862 11.4953H11.1478V11.5568H11.2094L11.271 11.6797L11.3325 11.7412H11.3941V11.8027H11.4557V11.8641L11.5789 11.9256V11.9871C12.01 12.4174 12.4411 12.8477 12.8107 13.278L12.8722 13.3395L12.9338 13.4624L13.057 13.5854C13.5497 14.2615 14.0424 14.9992 14.4735 15.7983V15.8598V15.9213H14.5351V15.9828V16.0442L14.5967 16.1057C14.5967 16.1672 14.6583 16.2901 14.7199 16.4131V16.4745V16.536L14.7815 16.5975V16.6589L14.8431 16.7819V16.8434V16.9048H14.9047V16.9663V17.0278V17.0892L14.9662 17.1507V17.2737V17.3351L15.0278 17.4581C15.0278 17.4581 15.0278 17.5195 15.0278 17.581H14.9662L14.9047 17.6425L14.8431 17.704L14.7815 17.7654H14.7199L14.6583 17.8269H14.5967L14.5351 17.8884L14.4735 17.9499H14.412L14.3504 18.0113H14.2888V18.0728L14.2272 18.1343H14.1656L14.104 18.1957H14.0424V18.2572H13.9808L13.9192 18.3187L13.8577 18.3802H13.7961L13.7345 18.4416L13.6729 18.5031H13.6113V18.5646H13.5497H13.4881V18.626H13.4265L13.365 18.6875L13.3034 18.749H13.2418V18.8105H13.1802L13.1186 18.8719L13.057 18.9334H12.9954L12.9338 18.9949L12.8722 19.0563H12.8107V19.1178H12.7491L12.6875 19.1793L12.6259 19.2408L12.5643 19.3022H12.5027V19.3637H12.4411L12.3795 19.4252H12.318L12.2564 19.4866L12.1948 19.5481L12.1332 19.6096H12.0716H12.1332H12.1948H12.2564H12.318L12.3795 19.6711H12.4411H12.5027H12.5643H12.6259H12.6875L12.8107 19.7325H12.8722H12.9338H12.9954C12.9954 19.7325 13.057 19.794 13.1186 19.794H13.2418L13.3034 19.8555H13.4265H13.4881L13.6113 19.917H13.6729L13.7961 19.9784H13.8577H13.9808L14.0424 20.0399H14.1656L14.2888 20.1014H14.3504V20.1628H14.412H14.4735H14.5351C15.0894 20.4087 15.6437 20.5931 16.1364 20.839C16.3212 20.962 16.5059 21.0234 16.6291 21.1464H16.6907C16.8755 21.2693 17.0602 21.3923 17.1834 21.4537L17.245 21.5152L17.3066 21.5767L17.4298 21.6382L17.4914 21.6996L17.5529 21.7611H17.4914H17.4298H17.3682H17.3066V21.6996H17.245H17.1834C16.6291 21.5767 16.1364 21.5152 15.5821 21.4537L15.2742 21.3923C14.5967 21.2693 13.9192 21.2079 13.2418 21.1464C12.6875 21.0849 12.1332 21.0849 11.5789 21.0234H11.3941H11.3325H11.0862H10.8398H10.7783H10.7167H10.6551H10.5935H10.5319H10.4703H10.4087H10.3471H10.1624H10.1008H10.0392C6.95979 20.962 3.88039 21.3923 1.66322 22.6217C2.03274 22.6832 2.46386 22.7447 2.83339 22.8061C3.57245 22.9905 4.24992 23.1135 4.92738 23.2364C5.42009 23.3594 5.91279 23.4823 6.4055 23.6053C7.14456 23.7282 7.76044 23.9126 8.37632 24.097C8.80743 24.2815 9.30014 24.4044 9.73125 24.5888L9.85443 24.6503H9.91602H9.97761H10.0392V24.7118H10.1008H10.1624L10.224 24.7732H10.2855H10.3471L10.4087 24.8347H10.4703L10.5319 24.8962H10.5935H10.6551V24.9576H10.7167H10.7783L10.8398 25.0191H10.9014H10.963V25.0806H11.0246H11.0862V25.1421H11.1478H11.2094L11.271 25.2035H11.3325L11.3941 25.265L11.5173 25.3265H11.5789H11.6405L11.7637 25.3879L11.8868 25.4494L12.01 25.5109L11.8252 25.4494L11.9484 25.5109H12.01C9.79284 26.4944 8.25314 28.523 7.51408 30.9204L7.4525 30.9819V31.0434V31.1048L7.39091 31.1663V31.2278V31.2892L7.32932 31.3507V31.4122V31.4737V31.5351L7.26773 31.5966V31.6581V31.7195V31.781L7.20614 31.904V31.9654V32.0269L7.14456 32.0884V32.1499V32.2113V32.2728V32.3343L7.08297 32.3957V32.4572V32.5187V32.5802V32.6416L7.02138 32.7031V32.7646V32.826V32.8875V32.949V33.0105L6.95979 33.0719V33.1334V33.1949V33.2563V33.3178V33.3793V33.4408V33.5022L6.8982 33.5637V33.7481V33.8096V33.9325V33.994V34.0555C6.83661 34.6087 6.83661 35.162 6.83661 35.7152V35.7767V35.8996V35.9611V36.0226L6.8982 36.084V36.1455V36.207V36.2685V36.3299V36.3914V36.4529V36.5144V36.5758V36.6373V36.6988L6.95979 36.8217V36.8832V37.0676V37.1291V37.1905C7.02138 37.4979 7.08297 37.8053 7.14456 38.1126V38.0512C7.26773 38.4815 7.39091 38.8503 7.51408 39.2806C7.63726 39.6494 7.82202 40.0182 8.00679 40.3871C8.56108 41.4321 9.30014 42.4157 10.1624 43.2763V43.3377H10.224L10.2855 43.3992L10.3471 43.4607C10.5935 43.7066 10.8398 43.9524 11.1478 44.1369V44.1983H11.2094V44.2598H11.271L11.3325 44.3213L11.3941 44.3828H11.4557V44.4442H11.5173L11.5789 44.5057H11.6405L11.7021 44.6286C11.8252 44.6901 11.9484 44.7516 12.01 44.8131H12.0716C12.1332 44.8745 12.1948 44.936 12.318 44.9975L12.3795 45.0589H12.4411V45.1204H12.5027H12.5643V45.1819H12.6259L12.6875 45.2434H12.7491V45.3048H12.8107H12.8722C13.1802 45.4892 13.4265 45.6737 13.7961 45.7966H13.7345C14.412 46.104 15.151 46.4113 15.8901 46.6572V46.5957C16.0132 46.6572 16.0748 46.6572 16.198 46.7187C16.4444 46.7802 16.6907 46.8416 16.9371 46.9031C17.245 46.9646 17.5529 47.026 17.8609 47.0875H17.9225L17.9841 47.149H18.0456H18.1072H18.1688L18.292 47.2105H18.3536C18.4152 47.2105 18.5384 47.2105 18.6615 47.2105L18.9079 47.2719H18.9695H19.0311H19.0926H19.1542V47.3334H19.2158H19.2774H19.339H19.4006H19.4622H19.5854H19.6469C19.7085 47.3334 19.7701 47.3949 19.8317 47.3949H19.8933C20.2012 47.3949 20.4476 47.3949 20.7555 47.4563H20.8171H20.8787H20.9403C21.8641 47.4563 22.9111 47.4563 23.9581 47.3949C24.1429 47.3334 24.3276 47.3334 24.5124 47.3334H24.6356C24.6972 47.3334 24.7587 47.2719 24.8203 47.2719H24.8819C25.0051 47.2719 25.0667 47.2719 25.1899 47.2719C22.2336 46.9031 19.1542 45.5507 17.245 43.4607C17.1218 43.2148 16.9371 43.0304 16.8139 42.846C16.6291 42.6001 16.4444 42.3542 16.2596 42.0468V41.9854C15.9517 41.3092 15.7053 40.633 15.5821 39.8953L15.5205 39.9568C15.4589 39.465 15.3974 39.0347 15.4589 38.6044V38.5429V38.42C15.5205 37.8667 15.5821 37.252 15.7669 36.7602L15.8285 36.5758V36.4529L15.8901 36.3914V36.3299V36.2685L15.9517 36.1455L16.0132 36.084L16.0748 35.9611V35.8996C16.1364 35.7767 16.1364 35.7152 16.198 35.5923L16.2596 35.5308V35.4693L16.3212 35.4079V35.3464C16.4444 35.2234 16.5059 35.039 16.6291 34.9161V34.8546L16.6907 34.7931L16.7523 34.7317C16.8139 34.5473 16.9371 34.4243 17.0602 34.2399C17.6761 33.5022 18.3536 32.7646 19.2158 32.2113C19.2774 32.0884 19.4006 32.0269 19.4622 31.9654H19.5238L19.5854 31.904L19.6469 31.8425L19.7085 31.781H19.8317V31.7195H19.8933L19.9549 31.6581L20.0781 31.5966L20.1396 31.5351L20.2012 31.4737H20.3244L20.386 31.4122L20.5092 31.2892H20.5708L20.6939 31.2278L20.7555 31.1663C20.8171 31.1663 20.9403 31.1048 21.0635 31.0434L21.1251 30.9819L21.2482 30.9204H21.3098L21.3714 30.8589L21.4946 30.7975H21.5562L21.6793 30.736C22.6648 30.2442 23.6502 29.9369 24.6356 29.691C25.0051 29.568 25.313 29.5066 25.621 29.4451C25.9289 29.3836 26.2369 29.3221 26.4832 29.3221C26.6064 29.2607 26.7296 29.2607 26.8527 29.2607H26.9143H26.9759H27.0375H27.0991H27.1607V29.1992H27.2223H27.2839H27.3454H27.407H27.4686H27.5302H27.5918H27.6534H27.715H27.7766H27.8382H27.8997H27.9613H28.0229H28.1461H28.2077H28.2693H28.3309H28.3924H28.454H28.5156H28.5772H28.6388H28.7004H28.762H28.8236V29.2607H28.8852H28.8236H28.762H28.7004H28.6388V29.3221H28.5772H28.5156H28.454H28.3924L28.3309 29.3836H28.2693H28.2077V29.4451H28.1461H28.0845L28.0229 29.5066C27.6534 29.6295 27.2223 29.8139 26.7912 29.9983V30.0598H26.7296H26.668L26.6064 30.1213H26.5448V30.1828H26.4832L26.4216 30.2442H26.36L26.2985 30.3057H26.2369L26.1753 30.3672L26.1137 30.4286C26.668 30.6131 27.2223 30.736 27.715 30.9204H27.7766L27.8382 30.9819L28.0845 31.0434L28.2077 31.1048L28.3924 31.1663H28.5156L28.762 31.2892C30.4864 31.904 31.9646 32.5802 33.5658 33.5022L33.6274 33.5637H33.689V33.6252H33.7506L34.0586 33.8096V33.7481L34.1201 33.6866V33.6252V33.5637C34.1201 33.4408 34.0586 33.3793 34.0586 33.3178V33.1334V33.0719V33.0105V32.949V32.8875V32.826V32.7646V32.7031V32.6416V32.5802H33.997V32.5187V32.4572V32.3957V32.3343V32.2728L33.9354 32.2113V32.1499V32.0884V32.0269V31.904L33.8738 31.8425V31.781V31.7195L33.8122 31.6581V31.5966V31.5351V31.4737V31.4122H33.7506V31.3507V31.2892V31.2278C33.689 31.1048 33.6274 30.9819 33.5658 30.8589C33.4427 30.4901 33.2579 30.1213 33.0116 29.7524H32.95V29.691V29.6295H32.8884V29.568C32.642 29.2607 32.3341 28.9533 32.0261 28.646H31.9646V28.5845H31.903V28.523H31.8414L31.7798 28.4615H31.7182L31.6566 28.4001L31.595 28.3386H31.6566L31.7182 28.2771H31.7798C31.8414 28.2771 31.903 28.2157 31.9646 28.2157H32.0261H32.0877V28.1542H32.1493H32.2109H32.2725H32.3341L32.3957 28.0927H32.4573H32.5188H32.5804L32.642 28.0312H32.7036H32.7652H32.8268H32.8884V27.9698H32.95H33.0116H33.0731H33.1347L33.1963 27.9083H33.2579H33.3195H33.3811H33.4427V27.8468H33.5043H33.5658H33.6274H33.689H33.7506V27.7853H33.8122H33.8738H33.9354H33.997V27.7239H34.0586H34.1201H34.1817H34.2433L34.3049 27.6624H34.3665H34.4281C35.3519 27.478 36.3373 27.355 37.2611 27.2936C38.3697 27.1706 39.4167 27.1092 40.6485 26.9862C40.8332 26.9862 41.018 26.9862 41.1412 26.9247C41.1412 26.9247 41.9418 26.8633 42.0034 26.8633H42.065H42.1266V26.8018H42.1882H42.2498H42.3114H42.3729H42.4345H42.4961V26.7403H42.5577H42.6193H42.6809L42.7425 26.6789H42.8041H42.8656H42.9272V26.6174H42.9888H43.0504L43.112 26.5559H43.1736H43.2352V26.4944H43.2968H43.3584C43.4199 26.433 43.4815 26.3715 43.5431 26.3715V26.31C43.6663 26.2486 43.7279 26.1871 43.7895 26.1256V26.0641C43.8511 26.0027 43.8511 25.9412 43.9126 25.8797C43.9742 25.7568 43.9742 25.6338 43.9742 25.5109C43.9742 25.5109 43.9742 25.4494 43.9126 25.4494V25.3879V25.3265V25.265H43.8511V25.2035H43.7895C43.6663 25.0806 43.3584 24.9576 42.9888 24.8347C42.8041 24.7732 42.6809 24.7732 42.5577 24.7118H42.4961L42.3114 24.6503V24.5888L42.1882 24.5273H42.1266H42.065L42.0034 24.4659H41.9418L41.8186 24.4044H41.7571H41.6955V24.3429H41.6339H41.5723V24.2815H41.5107H41.4491L41.3875 24.22H41.3259L41.2644 24.1585H41.2028H41.1412L41.0796 24.097L41.018 24.0356H40.9564L40.8948 23.9741H40.8332L40.7717 23.9126C40.4637 23.7897 40.1558 23.6053 39.8478 23.3594H39.7247V23.2979H39.6631V23.2364L39.5399 23.175L39.4783 23.1135L39.3551 23.052L39.2935 22.9905H39.2319V22.9291H39.1704L39.1088 22.8676L39.0472 22.8061H38.9856V22.7447H38.924V22.6832H38.8624V22.6217H38.8008L38.7392 22.5602L38.6777 22.4988L38.6161 22.4373L38.5545 22.3758L38.4929 22.3144L38.4313 22.2529L38.3697 22.1914V22.1299H38.3081C38.0618 21.8226 37.877 21.5767 37.7538 21.3308V21.2693H37.6922V21.2079V21.1464H37.6307H37.6922L37.7538 21.2079H37.8154C38.0618 21.3923 38.3697 21.5152 38.7392 21.6996L38.8624 21.7611L39.1088 21.8841H39.1704H39.2319H39.2935V21.9455H39.3551H39.4167L39.4783 22.007H39.5399H39.6015L39.6631 22.0685H39.7247H39.7862V22.1299H39.8478H39.9094L39.971 22.1914H40.0326H40.0942C40.3405 22.3144 40.5869 22.3758 40.8332 22.4373L40.8948 22.4988C41.2644 22.5602 41.6339 22.6832 41.9418 22.7447C42.7425 22.9291 43.4199 23.1135 44.0974 23.175C44.2206 23.2364 44.4053 23.2364 44.5285 23.2364C44.7133 23.2979 44.8365 23.2979 45.0212 23.2979C45.2676 23.2979 45.5139 23.2979 45.8219 23.2364H45.8835H45.9451H46.0066V23.175H46.0682H46.1298H46.1914H46.253H46.3146V23.1135H46.3762H46.4378H46.4993V23.052H46.5609H46.6225L46.7457 22.9905H46.8073H46.8689L46.9305 22.9291H46.9921L47.1152 22.8676L47.1768 22.8061H47.2384V22.7447C47.5463 22.6217 47.7311 22.4373 47.9775 22.2529V22.1914C48.1006 22.0685 48.2238 21.9455 48.347 21.7611H48.4086V21.6996H48.4702V21.6382H48.5318V21.5767C48.6549 21.4537 48.7165 21.3923 48.7781 21.3308L48.8397 21.2693C48.9629 21.1464 49.0245 21.0849 49.086 21.0234H49.1476V20.962H49.2092C49.5788 20.6546 50.0099 20.4087 50.3794 20.1014C50.7489 19.794 50.9953 19.4866 51.1185 19.1793V19.1178H51.18V19.0563V18.9949C51.2416 18.8719 51.2416 18.749 51.2416 18.626V18.5646C51.2416 18.3802 51.18 18.2572 51.0569 18.1343C50.9337 17.9499 50.6873 17.7654 50.3794 17.581V17.5195H50.3178L50.2562 17.4581H50.1946C50.0715 17.3966 49.9483 17.2737 49.7635 17.2122C49.6403 17.1507 49.5172 17.0892 49.394 17.0278H49.3324V16.9663L49.0245 16.8434H48.9629V16.7819H48.9013H48.8397L48.6549 16.6589H48.5933L48.4702 16.5975L48.4086 16.536C48.1006 16.4131 47.7927 16.2901 47.4848 16.1672H47.4232V16.1057H47.3616H47.3H47.2384V16.0442L47.0536 15.9828H46.9921L46.8073 15.9213L46.7457 15.8598L46.6225 15.7983H46.5609H46.4993L46.3146 15.7369V15.6754H46.253H46.1914L46.1298 15.6139H46.0682L45.9451 15.5524H45.8835H45.8219L45.7603 15.491H45.6371V15.4295L45.3292 15.368H45.2676C44.9596 15.2451 44.5901 15.1221 44.2206 14.9992C44.0358 14.9377 43.9126 14.9377 43.7279 14.8763C43.5431 14.8148 43.4199 14.7533 43.2352 14.7533V14.6918H43.1736H43.112L42.8041 14.6304L42.7425 14.5689H42.6193H42.5577L42.3729 14.5074H42.3114L42.2498 14.446H42.065L42.0034 14.3845H41.9418C41.5723 14.323 41.1412 14.2001 40.7717 14.1386H40.7101V14.0771H40.6485H40.5869H40.4637H40.4021V14.0157H40.3405H40.2174H40.1558L40.0942 13.9542H40.0326H39.971H39.9094H39.8478L39.5399 13.8927H39.4783V13.8312H39.4167H39.3551L38.924 13.7698H38.8624C38.7392 13.7083 38.5545 13.7083 38.3697 13.6468C37.9386 13.5854 37.4459 13.5239 37.0148 13.4624H36.9532H36.8916H36.83H36.7684L36.6452 13.4009H36.5837H36.5221H36.4605H36.3989H36.3373H36.2757H36.2141H36.1525L36.0294 13.3395H35.9678H35.9062H35.8446H35.6598H35.5983H35.5367L35.4751 13.278H35.4135H35.1055H35.044H34.9824H34.9208L34.8592 13.2165H34.5513H34.4897C33.997 13.155 33.5043 13.155 33.0116 13.0936H32.8884H32.8268H32.7652H32.642H32.5804H32.5188H32.4573H32.3341H32.2725H32.2109H32.0877H32.0261H31.9646H31.903H31.7798H31.7182H31.6566H31.5334H31.4719H31.4103H31.1023H31.0407H30.9791H30.9176H30.4864H30.4249H30.3633H30.3017C29.6858 13.0936 29.1315 13.0936 28.5772 13.155H28.3924H28.3309H28.2693H28.0845H28.0229L27.8382 13.2165H27.7766H27.715H27.5918H27.5302H27.2223L27.1607 13.278H27.0375H26.9759H26.7296H26.668L26.5448 13.3395H26.4832H26.4216H26.1753H26.1137H26.0521L25.9905 13.4009H25.9289H25.621C24.8819 13.5239 24.2045 13.6468 23.4654 13.7698L23.3422 13.8312C23.219 13.8312 23.0959 13.8927 22.9727 13.8927L22.8495 13.9542L22.5416 14.0157H22.48L22.2952 14.0771L22.0489 14.1386H21.9873L21.8025 14.2001L21.5562 14.2615H21.4946L21.3098 14.323H21.2482L21.0635 14.3845L21.0019 14.446H20.8787L20.8171 14.5074H20.7555L20.6323 14.5689H20.5708H20.5092L20.386 14.6304H20.3244L20.1396 14.6918L20.0781 14.7533H20.0165L19.8933 14.8148H19.8317C18.9695 15.1221 18.1072 15.491 17.3682 15.9213H17.3066ZM7.63726 43.3377L2.2791 48.5014C2.52545 49.1776 2.83339 49.8537 3.20292 50.407L9.05379 44.7516C8.62267 44.3828 8.25314 44.0139 7.88361 43.6451C7.76044 43.5221 7.69885 43.4607 7.63726 43.3377ZM49.394 1.53687H46.5609L35.9678 11.8027H36.3373C37.0764 11.9256 37.7538 11.9871 38.4929 12.11L49.394 1.53687ZM5.85121 40.8789L1.60163 44.9975C1.60163 45.8581 1.7248 46.6572 1.90957 47.3949L6.95979 42.5386C6.52867 41.9854 6.15915 41.4321 5.85121 40.8789ZM44.9596 1.53687H42.2498L31.8414 11.6183C32.7036 11.6183 33.5658 11.6183 34.4897 11.6797L44.9596 1.53687ZM4.49627 37.9897L1.54004 40.8789V43.4607L5.29691 39.8953C4.98897 39.2806 4.74262 38.6044 4.49627 37.9897ZM40.5869 1.53687H37.9386L27.2839 11.8641C27.5918 11.8027 27.9613 11.7412 28.3309 11.7412C28.8852 11.6797 29.501 11.6797 30.1169 11.6183L40.5869 1.53687ZM3.8188 34.4858L1.54004 36.6373V39.2191L4.18833 36.6988C4.00356 36.0226 3.88039 35.4079 3.8188 34.7317V34.4858ZM36.1525 1.53687H33.5658L21.9257 12.7862C22.9111 12.5403 24.0197 12.2944 25.2515 12.11L36.1525 1.53687ZM4.12674 29.9983L1.54004 32.4572V34.9776L3.75721 32.826C3.8188 31.904 3.88039 30.9204 4.12674 29.9983ZM31.7798 1.53687H29.2547L19.339 11.065C19.4622 11.1879 19.5854 11.2494 19.7085 11.3109C20.0781 11.5568 20.4476 11.8641 20.7555 12.1715L31.7798 1.53687ZM13.1802 17.0892L12.6259 17.581C12.8107 17.4581 12.9954 17.3351 13.1802 17.2122C13.1802 17.1507 13.1802 17.1507 13.1802 17.0892ZM5.23532 24.7118L1.54004 28.2771V30.736L4.74262 27.6009C5.05056 26.6789 5.48168 25.8183 5.97438 24.8962C5.72803 24.8347 5.48168 24.7732 5.23532 24.7118ZM27.3454 1.53687H24.8819L16.4444 9.71262C16.6291 9.77409 16.8755 9.89704 17.1218 9.95851C17.4298 10.0815 17.7993 10.2044 18.1688 10.3888L27.3454 1.53687ZM11.5173 14.446L6.09756 19.7325C6.95979 19.6096 7.88361 19.4866 8.80743 19.4252L12.5027 15.8598C12.2564 15.368 11.8868 14.9377 11.5173 14.446ZM1.7248 23.9126L1.54004 24.097V26.4944L3.75721 24.3429C3.14133 24.1585 2.40227 24.0356 1.7248 23.9126ZM22.9727 1.53687H20.5708L12.8722 8.97496C13.5497 9.03643 14.2272 9.15938 14.9047 9.28232L22.9727 1.53687ZM9.54649 12.1715L1.54004 19.917V20.7776C2.21751 20.5931 2.89498 20.3473 3.63403 20.2243L10.6551 13.4009C10.3471 12.9706 9.91602 12.5403 9.54649 12.1715ZM18.5384 1.53687H16.198L8.43791 9.03643C9.30014 8.91349 10.1624 8.85202 10.963 8.85202L18.5384 1.53687ZM7.26773 10.1429L1.54004 15.7369V17.9499L8.56108 11.1879C8.12996 10.8191 7.69885 10.5118 7.26773 10.1429ZM14.1656 1.53687H11.8868L1.54004 11.5568V13.7083L14.1656 1.53687ZM9.73125 1.53687H7.57567L1.54004 7.31522V9.46674L9.73125 1.53687ZM5.3585 1.53687H3.20292L1.54004 3.13513V5.22518L5.3585 1.53687ZM3.75721 51.2676C4.12674 51.8208 4.61944 52.3126 5.11215 52.8044L11.6405 46.5343C11.0246 46.1654 10.4087 45.7966 9.85443 45.3663L3.75721 51.2676ZM20.2012 38.2356L26.4832 32.1499C25.9905 32.0269 25.4978 31.8425 24.9435 31.7195C24.574 31.8425 24.1429 32.0884 23.7118 32.3343C23.3422 32.5187 23.0343 32.7031 22.7879 32.8875L20.8171 34.7931C20.6939 35.039 20.5092 35.2849 20.4476 35.5308C20.2012 36.0226 20.0781 36.5758 20.0781 37.1291C20.0781 37.375 20.0781 37.6208 20.1396 37.9282C20.1396 38.0512 20.1396 38.1126 20.2012 38.2356ZM45.6371 13.6468L51.6727 7.80699V4.97929L43.3584 13.0321C43.6663 13.0936 43.9126 13.155 44.159 13.2165C44.6517 13.3395 45.1444 13.5239 45.6371 13.6468ZM5.85121 53.4806C6.34391 53.9109 6.95979 54.3412 7.57567 54.71L14.7199 47.7637C13.9808 47.5793 13.2418 47.2719 12.5643 46.9646L5.85121 53.4806ZM22.1105 40.6944L29.7474 33.3178C29.0083 33.0105 28.2693 32.7646 27.5302 32.5187L20.5708 39.2191C20.6323 39.2806 20.6939 39.3421 20.7555 39.4035C20.8787 39.6494 21.0635 39.8338 21.3098 40.0797C21.4946 40.2641 21.8025 40.4486 22.1105 40.6944ZM48.8397 14.8148L51.6727 12.0486V9.15938L46.6841 14.0157C47.4232 14.2615 48.1622 14.5074 48.8397 14.8148ZM8.37632 55.2018C8.9922 55.5706 9.66967 55.878 10.4087 56.1853L18.292 48.5628C17.4914 48.4399 16.6907 48.317 15.8901 48.1325L15.7669 48.0711L8.37632 55.2018ZM25.1283 41.9854L32.7652 34.6087C32.1493 34.3014 31.4719 34.0555 30.6712 33.6866L22.9111 41.1247C23.4038 41.3706 23.8965 41.6165 24.3892 41.7395C24.6356 41.8624 24.8819 41.9239 25.1283 41.9854ZM35.3519 32.0884L39.0472 28.523C38.4313 28.523 37.7538 28.523 37.2611 28.5845C36.83 28.646 36.2757 28.7074 35.7214 28.7689L34.6744 29.8139C35.044 30.6131 35.2903 31.3507 35.3519 32.0884ZM51.6727 16.1672V13.3395L49.7635 15.1836C50.1946 15.368 50.5642 15.5524 50.9337 15.7369C51.18 15.8598 51.488 16.0442 51.6727 16.1672ZM11.271 56.6157C11.8868 56.8615 12.5643 57.1689 13.2418 57.4148L13.4881 57.4763L22.48 48.7473C21.4946 48.8087 20.4476 48.8087 19.4622 48.6858L11.271 56.6157ZM28.9467 42.5386L47.5463 24.5888C46.9921 24.8347 46.253 24.9576 45.3908 24.9576C45.5139 25.1421 45.5139 25.5109 45.4523 25.7568C45.3292 26.6174 44.5901 27.478 43.7895 27.8468C42.8041 28.2771 41.5107 28.4615 40.5869 28.523C40.5253 28.523 40.4021 28.523 40.3405 28.523L35.4135 33.2563C35.4135 34.0555 35.2903 34.9161 35.2287 35.8382C34.6128 35.5308 34.0586 35.2849 33.6274 35.039L26.1137 42.2312C26.9143 42.4157 27.6534 42.5386 28.3924 42.5386C28.5772 42.5386 28.762 42.5386 28.9467 42.5386ZM14.3504 57.7836C14.9662 58.0295 15.5821 58.2139 16.198 58.4598C16.3828 58.5213 16.5059 58.5828 16.6907 58.6442L26.7296 48.9317C26.668 48.7473 26.5448 48.5014 26.4832 48.317C25.621 48.5014 24.7587 48.6243 23.7733 48.6858L14.3504 57.7836ZM33.7506 42.1698L51.6727 24.8347V21.7611L30.1785 42.5386C31.3487 42.4771 32.5188 42.3542 33.7506 42.1698ZM17.4914 58.9516C18.292 59.2589 19.0311 59.5663 19.7085 59.9351L28.3924 51.575C27.8997 51.0217 27.4686 50.407 27.0991 49.6693L17.4914 58.9516ZM39.5399 40.8174L51.6727 29.0763V25.9412L35.1055 41.9239C36.5837 41.678 38.0618 41.3092 39.5399 40.8174ZM20.386 60.3654C21.0635 60.7343 21.7409 61.1646 22.3568 61.6563L30.856 53.4806C30.1785 53.1118 29.501 52.62 28.9467 52.0667L20.386 60.3654ZM34.3049 50.0996L42.4961 42.2312C39.6015 43.891 34.6128 46.8416 34.3049 50.0996ZM48.2238 36.6988L51.6727 33.3178V30.1213L41.2028 40.2641C43.7279 39.3421 46.1298 38.1126 48.2238 36.6988ZM22.9111 62.1481C23.4654 62.6399 24.0197 63.1931 24.5124 63.8079L33.9354 54.71C33.1347 54.4641 32.3341 54.2183 31.5334 53.8494L31.4719 53.7879L22.9111 62.1481ZM35.5367 53.1732L51.6727 37.6208V34.3014L51.1185 34.8546C49.8251 36.7602 47.8543 38.4815 45.7603 40.0182L34.3665 51.0217C34.4897 51.575 34.6744 52.1282 35.1055 52.6815C35.2287 52.8659 35.4135 53.0503 35.5367 53.1732ZM24.9435 64.3611C25.4362 64.9758 25.8673 65.7135 26.2369 66.4511L28.2077 64.5455C28.3924 64.2996 28.5772 64.0537 28.762 63.8079C29.6858 62.5784 30.7944 61.6563 32.0261 60.8572L37.5691 55.5092C36.5837 55.3247 35.6598 55.1403 34.6744 54.9559L24.9435 64.3611ZM38.1234 54.9559L51.6727 41.8624V38.4815L36.0294 53.6035C36.6452 54.1568 37.3843 54.5871 38.1234 54.9559ZM26.5448 66.9429L26.6064 67.1888C26.7296 66.9429 26.8527 66.7585 26.9143 66.5741L26.5448 66.9429ZM34.1201 59.6278C35.044 59.1975 36.0294 58.7672 37.0764 58.4598C38.0002 58.091 38.9856 57.7836 39.971 57.4148L51.5496 46.2884C51.6112 45.5507 51.6727 44.7516 51.6727 44.0139V42.6615L38.7392 55.2018L38.9856 55.2633L40.3405 55.8165L38.8624 55.6321L38.3081 55.5706L34.1201 59.6278ZM41.3259 56.8615C44.0358 55.8165 46.6225 54.4027 48.5933 52.3741C50.0099 50.8373 50.8721 49.1161 51.3648 47.2105L41.3259 56.8615Z" fill="#E5F811"/>
<path fill-rule="evenodd" clip-rule="evenodd" d="M83.7603 29.8751C79.9418 30.4898 80.804 30.4284 82.6517 22.7444C83.206 20.5314 83.206 20.9002 86.4086 20.4084C88.5026 20.1011 87.2708 22.3141 86.347 26.0639C85.7311 28.7686 85.7927 29.5677 83.7603 29.8751ZM94.0455 31.166L102.729 29.7522C102.668 29.1374 102.606 29.4448 102.606 28.3998C102.606 26.4942 104.331 20.8387 104.885 18.5028C105.255 16.9045 105.686 15.1219 106.117 13.5851L107.287 8.60584L99.5268 9.83528L99.0957 9.89675C99.0957 9.89675 99.2805 10.8188 99.2805 10.8803C99.3421 11.2491 99.3421 11.7409 99.2189 12.3556C99.1573 12.9089 99.0341 13.2777 98.9109 13.708L95.1541 28.7686C94.8461 29.7522 94.4766 30.3054 94.0455 31.166ZM127.426 22.0067C127.426 25.8794 130.752 25.3262 133.277 24.8959C136.295 24.4041 139.374 23.9738 142.454 23.482C142.577 22.6829 143.624 20.2855 143.685 19.9781C142.638 20.4084 141.715 20.6543 140.791 20.7773C139.559 21.0232 136.788 21.4535 135.864 21.5149C135.186 21.5149 134.755 21.269 134.817 20.5314L135.556 17.5807C135.802 16.6587 136.049 15.5522 136.295 14.6301C136.541 13.5851 136.664 12.4171 137.835 12.2327C140.852 11.7409 144.117 11.0647 145.903 11.3106C146.026 10.3885 146.395 7.86818 146.395 7.86818C143.87 8.23701 141.345 8.60584 138.882 9.03615C130.075 10.45 130.321 9.65086 128.104 18.8102C127.857 19.6708 127.426 21.2076 127.426 22.0067ZM116.217 24.65C112.214 25.2647 112.522 25.3877 113.138 22.56C113.323 21.9452 113.384 21.269 113.938 20.9617C114.554 20.5929 117.387 20.2855 118.373 20.1011C118.188 20.9617 117.942 21.7608 117.695 22.7444C117.449 23.7279 117.449 24.4656 116.217 24.65ZM107.287 17.5193C108.026 17.2734 108.58 16.8431 109.443 16.7201L118.496 15.2448C119.789 15.0604 119.173 16.7201 118.865 16.966C118.434 17.3348 110.428 18.3799 109.566 18.5643C108.088 18.9331 106.979 20.0396 106.425 21.269C105.562 23.3591 104.639 26.74 106.548 28.031C107.164 28.4613 108.088 28.8301 109.196 28.6457C110.736 28.4613 113.692 28.0924 115.417 27.6006C116.094 27.3548 116.217 27.2933 116.771 26.6786L117.203 26.1253C117.203 26.8015 117.203 26.863 117.326 27.3548L124.716 26.1868C123.485 23.7894 128.042 15.8595 126.194 12.9089C125.64 11.9868 124.593 11.2491 123.053 11.495L110.797 13.4006C110.12 13.5236 109.566 13.6465 109.135 13.8924C108.888 14.0768 108.703 14.2613 108.519 14.6916C107.903 15.7981 107.287 17.5193 107.287 17.5193ZM145.287 21.2076V22.9903L152.985 21.7608C152.801 19.8552 152.616 20.4084 153.355 17.5807C153.601 16.7201 153.601 16.4128 153.909 16.1054C154.032 15.8595 154.34 15.6751 154.71 15.4292L155.818 18.2569C156.003 18.8102 156.126 19.1175 156.311 19.6708C156.557 20.1626 156.681 20.7158 156.927 21.1461L164.933 19.9167C164.256 18.9946 164.133 19.0561 163.64 17.8266C163.27 16.966 160.869 10.5729 160.869 10.1426C160.869 9.89675 163.517 7.68377 163.886 7.31493L167.089 4.5487L160.992 5.53225C160.684 6.76169 159.083 7.92965 158.159 8.72879C157.604 9.22056 157.112 9.71234 156.557 10.2041L154.895 11.5565C155.079 10.6344 155.326 9.83528 155.572 8.85173C155.88 7.56082 157.543 1.22922 157.543 0.614502L149.783 1.84394C149.598 1.84394 149.475 1.90541 149.475 1.90541C149.413 1.90541 149.475 2.27424 149.475 2.33571C149.536 2.64307 149.598 3.13485 149.536 4.05693C149.29 5.96255 145.287 20.7158 145.287 21.2076ZM83.6987 18.3184C84.0066 17.2734 84.253 16.2898 84.4993 15.2448C84.6841 14.5071 85.2384 12.9089 85.2384 12.1097L77.4783 13.3392L77.1703 13.4006C77.1703 13.3392 77.2935 14.5071 77.2935 14.753C77.2935 15.0604 77.2319 15.4292 77.1703 15.8595L73.1055 32.211C72.736 33.379 72.4897 33.7478 71.9969 34.6699L80.065 33.379C80.065 32.9487 80.1882 32.5799 80.3113 32.211C80.3729 32.2725 80.6809 32.7643 81.0504 32.9487C81.2967 33.0716 81.6663 33.1331 82.0974 33.0716L89.0568 31.9651C92.7521 31.3504 93.3064 27.1703 94.1071 23.7894C94.7845 21.0232 95.5852 18.8102 93.4296 17.2119C92.7521 16.7201 91.8283 16.4742 90.5965 16.7201L85.2384 17.5193C84.8689 17.6422 84.4993 17.7652 84.253 17.9496C84.1298 18.011 84.0682 18.134 83.945 18.2569C83.945 18.3184 83.8219 18.4413 83.8219 18.5028L83.6987 18.3184Z" fill="white"/>
<path fill-rule="evenodd" clip-rule="evenodd" d="M134.878 41.4318C131.06 42.0465 131.614 41.9236 132.661 37.5591C132.908 36.5141 133.154 35.6535 133.339 34.7314C133.955 32.211 133.955 32.5799 137.404 32.0266C139.005 31.7807 138.081 33.9322 137.773 35.1002L136.603 39.9565C136.295 40.94 136.049 41.2474 134.878 41.4318ZM179.776 34.3011C175.835 34.9773 176.081 35.0387 176.758 32.2725C176.882 31.5963 177.005 30.9201 177.497 30.6128C178.113 30.3054 181.008 29.9366 181.932 29.7522C181.747 30.6742 181.501 31.4734 181.316 32.3954C181.07 33.379 181.07 34.1167 179.776 34.3011ZM170.907 27.2318C171.647 26.9245 172.139 26.4942 173.063 26.3712L182.055 24.9574C183.348 24.7115 182.794 26.3712 182.486 26.6171C181.993 26.9859 174.048 28.0309 173.186 28.2768C171.647 28.5842 170.538 29.7522 170.045 30.9816C169.183 33.0102 168.259 36.3911 170.168 37.7435C170.784 38.1738 171.708 38.5426 172.817 38.3582C174.295 38.1123 177.313 37.805 178.976 37.2517C179.715 37.0673 179.838 36.9444 180.33 36.3296L180.823 35.7764C180.823 36.4526 180.823 36.5755 180.946 37.0673L188.337 35.8993C187.044 33.4405 191.601 25.5106 189.815 22.6214C189.261 21.6993 188.214 20.9002 186.674 21.1461L174.418 23.1132C173.679 23.2361 173.125 23.2976 172.694 23.605C172.509 23.7279 172.262 23.9738 172.078 24.3426C171.523 25.5106 170.907 27.1703 170.907 27.2318ZM113.261 44.8742C109.258 45.489 109.566 45.6119 110.182 42.7842C110.366 42.1695 110.428 41.4933 110.982 41.1859C111.598 40.8171 114.431 40.5097 115.417 40.3253C115.232 41.1859 114.986 41.9851 114.739 42.9686C114.554 43.9522 114.554 44.6898 113.261 44.8742ZM104.331 37.7435C105.07 37.4976 105.624 37.0673 106.486 36.9444L115.54 35.469C116.833 35.2846 116.279 36.9444 115.909 37.1903C115.478 37.5591 107.533 38.6041 106.671 38.7885C105.131 39.1574 104.023 40.2638 103.53 41.4933C102.668 43.5833 101.744 46.9643 103.592 48.2552C104.269 48.6855 105.131 49.0543 106.24 48.9314C107.78 48.6855 110.798 48.3167 112.46 47.8249C113.199 47.6405 113.323 47.5175 113.815 46.9028L114.308 46.3496C114.308 47.0257 114.308 47.0872 114.431 47.579L121.822 46.411C120.528 44.0136 125.086 36.0838 123.3 33.1331C122.684 32.211 121.699 31.4734 120.159 31.7193L107.903 33.6249C107.164 33.7478 106.61 33.8708 106.178 34.1167C105.932 34.3011 105.747 34.4855 105.563 34.9158C105.008 36.0223 104.392 37.7435 104.331 37.7435ZM149.228 28.1539C149.228 30.6742 146.888 37.0058 146.888 38.9115C146.888 40.6941 148.674 42.1695 150.46 41.9236L157.481 40.8171C158.344 40.6327 158.713 40.1409 159.144 39.6491C159.144 40.2024 159.206 40.018 159.267 40.5097L166.104 39.4032C165.488 38.2353 166.227 36.0838 166.596 34.8543L169.306 23.9123L161.177 25.2032C161.3 27.0474 161.485 26.74 160.745 29.5677C160.438 30.6128 160.191 31.5963 159.945 32.7028C159.698 33.7478 159.452 34.6699 159.206 35.7149C158.651 37.9279 158.528 37.682 155.572 38.1738C153.601 38.4812 154.402 37.0673 154.956 34.7314L156.434 28.8301C156.619 28.1539 157.05 26.5556 157.112 25.8794L148.921 27.1703C149.105 27.4162 149.228 27.6621 149.228 28.1539ZM124.593 42.2309C124.593 44.321 126.441 45.7348 128.412 45.4275L134.509 44.4439C135.002 44.3825 135.371 44.0136 135.618 43.7677C135.433 44.8128 135.125 45.7963 134.878 46.9028L134.447 48.5011L134.571 49.9149L142.269 48.6855C142.207 48.5625 142.207 48.4396 142.207 48.3167C141.838 46.534 142.454 45.2431 142.946 43.276L145.595 32.5184C145.903 31.2275 146.272 29.8136 146.827 28.5842C147.011 28.2154 147.258 27.7236 147.381 27.4162L139.313 28.7071C139.313 29.076 139.19 29.4448 139.066 29.8751C138.943 29.7522 138.882 29.5677 138.759 29.4448C138.451 29.076 137.835 28.8916 137.157 29.0145L130.69 30.0595C128.042 30.4898 126.934 32.2725 126.256 34.4855C125.702 36.0838 124.593 40.6941 124.593 42.2309Z" fill="white"/>
</svg>
