<svg xmlns="http://www.w3.org/2000/svg" width="46" height="46"><path fill-rule="evenodd" fill="#fff" d="M45.601 45.591c-.266.276-.623.409-.97.409-.346 0-.703-.143-.969-.409L32.481 34.413c-3.448 2.999-7.946 4.814-12.864 4.814C8.804 39.227 0 30.425 0 19.613 0 8.801 8.793-.001 19.617-.001c10.814 0 19.618 8.793 19.618 19.614 0 4.917-1.816 9.415-4.815 12.862l11.181 11.179c.53.53.53 1.407 0 1.937zM36.47 19.613c0-9.291-7.559-16.86-16.863-16.86-9.293 0-16.863 7.558-16.863 16.86s7.57 16.87 16.863 16.87c9.304 0 16.863-7.578 16.863-16.87zM26.5 21H21v5.5c0 .828-.672 1.5-1.5 1.5s-1.5-.672-1.5-1.5V21h-5.5c-.828 0-1.5-.672-1.5-1.5 0-.829.672-1.5 1.5-1.5H18v-5.5c0-.829.672-1.5 1.5-1.5s1.5.671 1.5 1.5V18h5.5c.828 0 1.5.671 1.5 1.5 0 .828-.672 1.5-1.5 1.5z"/></svg>