<svg xmlns="http://www.w3.org/2000/svg" x="0" y="0" viewBox="0 0 32 32" width="32" height="32"><path fill="#111" d="M12.743 26.1564c-2.7882 2.5924-7.5365 1.907-9.7598-.838C.352 22.0765-.1734 15.9321 4.4106 10.4358c2.2738-2.7263 5.014-4.7933 8.2179-6.2012l1.4776 2.38C9.5485 8.823 6.142 11.8175 5.6592 16.838c2.0564 0 3.7625-.0745 5.2821.4693 1.7301.619 2.781 1.7672 3.2123 3.0838.6842 2.0614.3525 4.126-1.4106 5.7653zm16.5252 0c-2.7882 2.5924-7.5366 1.907-9.7598-.838-2.6313-3.2419-3.1567-9.3863 1.4274-14.8826 2.2737-2.7263 5.014-4.7933 8.2178-6.2012l1.4777 2.38c-4.5577 2.2085-7.9642 5.203-8.447 10.2234 2.0564 0 3.7626-.0745 5.2822.4693 1.73.619 2.781 1.7672 3.2123 3.0838.6841 2.0614.3525 4.126-1.4106 5.7653z"/></svg>