<svg width="18" height="18" viewBox="0 0 18 18" fill="none" xmlns="http://www.w3.org/2000/svg">
<path d="M6.51562 0C8.35938 0.03125 9.89062 0.671875 11.1094 1.92188C12.3281 3.14062 12.9531 4.67188 12.9844 6.51562C12.9844 7.32812 12.8438 8.09375 12.5625 8.8125C12.3125 9.53125 11.9375 10.1719 11.4375 10.7344L11.7188 11.0156H12.5156L17.4844 15.9844L15.9844 17.4844L11.0156 12.5156V11.7188L10.7344 11.4375C10.1719 11.9375 9.53125 12.3281 8.8125 12.6094C8.09375 12.8594 7.32812 12.9844 6.51562 12.9844C4.67188 12.9531 3.125 12.3281 1.875 11.1094C0.65625 9.89062 0.03125 8.35938 0 6.51562C0.03125 4.67188 0.65625 3.14062 1.875 1.92188C3.125 0.671875 4.67188 0.03125 6.51562 0ZM6.51562 2.01562C5.23438 2.04688 4.17188 2.48438 3.32812 3.32812C2.48438 4.17188 2.0625 5.23438 2.0625 6.51562C2.0625 7.79688 2.48438 8.85938 3.32812 9.70312C4.17188 10.5469 5.23438 10.9688 6.51562 10.9688C7.79688 10.9688 8.85938 10.5469 9.70312 9.70312C10.5469 8.85938 10.9688 7.79688 10.9688 6.51562C10.9688 5.23438 10.5469 4.17188 9.70312 3.32812C8.85938 2.48438 7.79688 2.04688 6.51562 2.01562Z" fill="white"/>
</svg>
