<svg width="24" height="24" viewBox="0 0 24 24" fill="none" xmlns="http://www.w3.org/2000/svg">
<path fill-rule="evenodd" clip-rule="evenodd" d="M19.8 24C22.1196 24 24 22.1196 24 19.8V4.2C24 1.8804 22.1196 0 19.8 0H4.2C1.8804 0 0 1.8804 0 4.2V19.8C0 22.1196 1.8804 24 4.2 24H19.8ZM12.787 15.8642H11.8302C11.8309 15.8642 9.72064 16.0281 7.85907 14.3346C5.83281 12.4836 4.04324 8.86409 4.04324 8.86409C4.04324 8.86409 3.9399 8.62282 4.05125 8.50739C4.17726 8.37637 4.51997 8.36771 4.51997 8.36771L6.80693 8.35501C6.80693 8.35501 7.02296 8.38675 7.17631 8.48603C7.30433 8.56799 7.375 8.72094 7.375 8.72094C7.375 8.72094 7.74438 9.54055 8.23378 10.2822C9.18857 11.7292 9.63396 12.0461 9.958 11.8897C10.4301 11.664 10.288 9.84415 10.288 9.84415C10.288 9.84415 10.298 9.18385 10.0513 8.88948C9.86065 8.6615 9.50061 8.59512 9.34192 8.57607C9.2119 8.56049 9.42393 8.29902 9.69863 8.1807C10.1094 8.00408 10.8361 7.99427 11.6949 8.00177C12.3636 8.00754 12.5563 8.04448 12.8184 8.09989C13.4242 8.22835 13.4054 8.64023 13.3647 9.52874C13.3525 9.794 13.3384 10.1017 13.3384 10.4571C13.3384 10.5371 13.3358 10.6224 13.3331 10.7101C13.3189 11.1653 13.3028 11.6863 13.6438 11.8799C13.8185 11.9792 14.2479 11.8949 15.3187 10.2995C15.8267 9.54343 16.2068 8.65457 16.2068 8.65457C16.2068 8.65457 16.2901 8.49527 16.4188 8.42774C16.5502 8.35847 16.7302 8.37925 16.7302 8.37925L19.1352 8.36598C19.1352 8.36598 19.8579 8.29036 19.9753 8.57665C20.098 8.87736 19.7052 9.57922 18.7218 10.7278C17.7949 11.812 17.3411 12.2141 17.3767 12.567C17.403 12.8284 17.698 13.0627 18.2684 13.5272C19.4604 14.4973 19.7726 15.003 19.8444 15.1192C19.8497 15.1278 19.8537 15.1343 19.8566 15.1387C20.3873 15.9086 19.2699 15.9687 19.2699 15.9687L17.1336 15.9935C17.1336 15.9935 16.6742 16.0691 16.0701 15.7072C15.7537 15.5165 15.4443 15.2041 15.1494 14.9064C14.6998 14.4525 14.2842 14.0328 13.9298 14.1315C13.3351 14.2971 13.3538 15.4088 13.3538 15.4088C13.3538 15.4088 13.3578 15.6223 13.2224 15.7505C13.0751 15.8896 12.787 15.8642 12.787 15.8642Z" fill="white"/>
</svg>
